<svg xmlns="http://www.w3.org/2000/svg" height="1024" preserveAspectRatio="none" style="display: block;" version="1.1" viewBox="0 0 2048 2048" width="1024">
<path d="M 0 0 L 2048 0 L 2048 2048 L 0 2048 L 0 0 z" fill="rgb(254,255,254)" transform="translate(0,0)"></path>
<path d="M 1021.49 56.7865 C 1031.77 57.1078 1055.33 76.0263 1064.49 82.5651 L 1124.04 125.078 C 1131.92 122.215 1140.51 117.747 1148.47 114.643 C 1178.43 102.961 1211.22 87.3532 1242.22 79.4541 C 1271.11 108.268 1298.54 142.361 1327.42 170.644 C 1343.17 166.135 1431.48 146.952 1442.14 149.245 C 1444.53 149.761 1446.01 151.864 1447.42 153.744 C 1454.05 162.586 1459.36 173.215 1464.98 182.733 C 1479.35 207.065 1492.97 232.014 1507.93 255.96 C 1524.49 256.067 1617.54 261.352 1627.87 265.703 C 1632.82 270.38 1663.34 369.363 1667.72 383.659 C 1703.25 393.021 1745.27 404.867 1779.85 417.6 C 1784.62 419.353 1792.98 528.984 1793.49 541.784 C 1806.96 549.074 1894.28 595.947 1900.16 604.392 C 1903.57 609.292 1883.44 704.98 1880.52 719.794 C 1891.72 729.148 1962.83 799.743 1967.95 808.121 C 1965.18 825.664 1930.5 901.413 1920.57 920.003 C 1931.73 932.47 1948.02 956.91 1957.83 971.053 C 1968.28 986.128 1984.45 1008.19 1992.39 1023.88 C 1986.82 1041.06 1933.57 1110.03 1920.15 1125.36 C 1937.63 1156.68 1957.14 1207.96 1967.86 1241.91 C 1957.22 1256 1928.87 1280.17 1915.57 1292.75 C 1907.69 1300.19 1888.62 1317.66 1880.28 1323.86 C 1882.58 1340.26 1903.32 1439.54 1900.92 1447.76 C 1893.27 1455.82 1808.11 1497.88 1793.65 1504.16 C 1792.74 1521.85 1786.89 1618.96 1780.67 1629.57 C 1777.42 1635.13 1679.64 1663.09 1666.72 1666.64 C 1663.54 1680 1636.33 1773.77 1629.52 1781.81 C 1627.61 1784.06 1624.56 1784.63 1621.75 1785.11 C 1608.91 1787.27 1594.95 1787.04 1581.9 1787.68 C 1557.62 1788.95 1533.34 1790.09 1509.05 1791.09 C 1501.3 1806.04 1452 1897.07 1443.84 1903.17 C 1432.28 1904.99 1343.63 1883.62 1324.19 1880.26 C 1309.66 1897.13 1294.35 1913.28 1279.71 1930.03 C 1270.01 1941.13 1261.06 1953.1 1250.84 1963.68 C 1248.55 1966.05 1245.97 1968.77 1242.88 1970.01 C 1236.39 1972.64 1138.72 1929.9 1125.6 1924.46 C 1097.34 1945.83 1056.4 1976.15 1026.58 1995.23 C 1023.86 1995.44 1021.03 1994.94 1018.75 1993.43 C 985.927 1971.56 953.931 1946.95 921.949 1924.07 C 885.09 1937.78 844.266 1958.59 806.212 1970.01 C 797.462 1962.82 784.456 1947.47 776.388 1938.52 C 757.618 1917.69 740.38 1897.8 720.502 1877.91 C 703.043 1882.28 614.28 1903.79 602.022 1902.46 C 592.908 1894.91 552.789 1808.19 542.87 1792.28 L 542.027 1790.94 C 524.831 1790.52 428.128 1788.72 416.561 1784.49 C 411.658 1779.98 403.294 1742.57 400.867 1733.26 C 394.681 1709.89 388.284 1686.57 381.679 1663.31 C 360.465 1655.7 271.887 1639.13 259.603 1630 C 256.755 1624.27 254.547 1523.35 254.045 1507.87 C 230.913 1493.25 205.062 1480.49 181.152 1467.03 C 169.953 1460.73 151.83 1452.19 142.553 1444.32 C 144.589 1430.46 149.45 1413.09 152.876 1399.06 C 158.663 1375.13 164.187 1351.15 169.447 1327.1 C 147.602 1305.47 124.273 1285.43 101.59 1264.7 C 93.6411 1257.43 85.5621 1250.16 79.3405 1241.31 C 89.8588 1200.44 110.419 1162.87 124.215 1124.66 C 113.106 1112.58 59.6992 1038.22 54.7429 1024.3 C 61.8833 1007.78 112.432 937.766 124.834 923.65 C 108.915 894.135 93.4062 838.369 82.9444 805.368 C 90.8206 791.67 151.358 742.684 167.055 727.413 C 160.812 701.076 156.549 669.836 151.783 642.945 C 149.744 631.439 146.722 615.122 145.394 603.863 C 156.507 594.533 192.461 576.48 206.106 569.382 C 219.621 562.351 240.63 550.68 254.222 544.741 C 255.125 528.794 262.383 430.04 266.55 420.824 C 276.046 412.05 361.742 388.126 380.935 382.272 C 391.141 345.396 403.017 307.85 414.607 271.263 C 418.316 259.557 475.797 259.792 488.248 258.173 C 504.36 256.078 524.908 255.421 541.411 254.498 C 555.263 230.135 567.397 203.7 581.274 179.206 C 587.05 169.012 592.523 157.136 599.23 147.637 C 614.368 148.271 634.392 152.747 649.629 155.666 L 721.931 169.756 C 749.735 143.532 773.705 108.611 802.375 82.6778 C 809.808 75.9545 821.661 82.3216 830.244 85.8066 C 861.146 98.3536 892.74 110.815 922.773 125.346 C 931.815 120.303 942.375 111.931 951.096 106.117 C 973.975 90.8634 998.428 71.0017 1021.49 56.7865 z" fill="rgb(42,45,59)" transform="translate(0,0)"></path>
<path d="M 1024.29 92.8824 C 1027.87 94.3388 1039.94 103.492 1044.01 106.075 C 1061.64 117.241 1103.72 150.911 1121.19 157.134 C 1132.51 154.18 1151.69 144.873 1163.55 140.4 C 1186.83 131.618 1210.12 122.83 1233.2 113.538 C 1250.11 131.417 1300.45 193.464 1316.19 202.764 C 1328.53 201.012 1345.15 197.148 1357.67 194.692 C 1381.4 190.12 1405.15 185.672 1428.92 181.348 C 1442.39 207.149 1460.39 232.356 1474.06 258.26 C 1477.69 265.144 1488.11 283.86 1495.94 285.066 C 1508.6 287.014 1523.32 287.204 1536.34 287.991 C 1560.01 289.454 1583.65 291.239 1607.27 293.344 C 1608.58 298.211 1611.38 308.802 1614.14 315.341 C 1622.13 334.27 1634.84 396.483 1648.28 408.088 C 1651.82 411.139 1693.62 422.62 1700.57 424.73 C 1718.46 430.094 1736.25 435.819 1753.92 441.903 C 1754.94 460.96 1758.71 481.75 1760.35 501.049 C 1762.33 509.789 1764 560.066 1772.02 564.192 C 1797.38 577.24 1843.85 605.269 1867.44 619.614 C 1862.83 654.451 1854.82 693.26 1851.13 727.809 C 1850.58 732.977 1924.83 808.469 1932.74 814.022 C 1926.16 836.642 1916.49 859.435 1907.64 881.345 C 1901.87 895.643 1895.06 909.586 1890.97 924.497 C 1896.94 936.41 1911.91 957.777 1919.91 969.326 C 1932.2 987.061 1944.88 1007.25 1957.44 1024.54 C 1950.48 1032.81 1938.53 1051.12 1931.88 1060.88 C 1919 1079.79 1903.98 1100.34 1892.03 1119.62 C 1893.42 1124.14 1895.34 1129.08 1897.08 1133.49 C 1910.29 1167.13 1921.67 1201.2 1933.2 1235.44 C 1914.44 1250.37 1898.56 1266.52 1881.29 1283.1 C 1870.41 1293.55 1856.64 1305.67 1846.96 1316.77 C 1854.75 1354.88 1860.21 1390.87 1866.24 1429.06 C 1848.79 1443.34 1817.58 1455.97 1797.96 1468.13 C 1789.48 1473.38 1769.43 1479.33 1767.74 1489.78 C 1761.56 1528.16 1759.74 1567.71 1752.99 1606.07 C 1729.86 1613.19 1706.87 1620.71 1684.01 1628.63 C 1677.64 1630.81 1645.26 1640.51 1643.12 1646.31 C 1630.23 1681.14 1620.71 1717.63 1608.03 1752.65 C 1572.42 1753.72 1533.34 1759.6 1497.53 1761.93 C 1490.61 1762.38 1474.35 1793.71 1470.01 1801.08 L 1430.2 1868.21 C 1404.34 1863.94 1378.48 1858.46 1352.6 1854.3 C 1343.5 1852.84 1315.72 1845.5 1309.68 1851.72 C 1283.74 1878.4 1259.37 1906.86 1233.14 1933.33 C 1210.32 1924.3 1187.34 1915.65 1164.24 1907.37 C 1151.49 1902.76 1136.23 1896.83 1123.31 1893.33 C 1112.61 1897.08 1095.32 1910.05 1085.31 1916.88 C 1067.79 1928.93 1050.19 1940.85 1032.5 1952.64 C 1029.12 1955.08 1027.46 1955.93 1023.73 1957.87 C 1004.65 1944.47 985.481 1931.2 966.229 1918.05 C 955.134 1910.43 939.415 1899.1 927.675 1893.18 C 913.957 1895.36 895.029 1904.72 881.541 1909.2 C 859.107 1916.64 836.842 1925.51 814.643 1933.22 C 806.363 1922.65 738.104 1852.13 729.874 1847.01 C 716.767 1848.84 701.012 1852.67 687.56 1855.12 C 663.826 1859.23 640.034 1863 616.191 1866.43 C 603.58 1845.16 591.705 1822.77 579.322 1801.33 C 572.744 1789.95 566.613 1774.45 558.066 1765.09 C 545.675 1762.66 522.521 1762.14 509.162 1761.27 C 486.128 1759.74 463.142 1757.57 440.229 1754.76 C 435.098 1738.96 430.134 1723.73 425.056 1707.37 C 418.757 1687.12 414.902 1664.47 406.405 1645.15 C 403.334 1638.17 374.922 1632.58 366.958 1630.28 L 290.731 1607.99 C 285.846 1583.07 286.761 1553.79 284.102 1528.21 C 283.439 1521.31 284.119 1493.6 278.825 1489.74 C 263.823 1478.78 240.632 1467.18 224.665 1457.72 C 209.617 1448.67 194.695 1439.41 179.903 1429.94 C 185.283 1392.08 194.114 1356.47 200.34 1319.42 C 190.434 1306.73 125.768 1243.19 112.901 1235.07 L 153.878 1122.37 C 145.727 1108.01 131.452 1088.09 122.271 1073.76 C 114.081 1060.98 99.3649 1037.38 90.2817 1026.12 C 102.122 1006.51 116.551 986.346 129.02 967.006 C 136.096 956.03 148.599 939.589 153.471 928.023 C 140.655 890.109 129.253 851.672 115.559 814.118 C 132.397 796.158 187.196 751.582 195.325 734.151 C 194.779 721.585 191.281 701.844 189.407 688.989 C 185.948 665.54 182.845 642.04 180.1 618.497 C 199.171 607.084 219.053 597.067 238.461 586.309 C 250.772 578.746 279.628 569.102 281.982 552.182 C 287.065 515.643 289.39 476.627 294.384 439.981 L 358.701 419.922 C 367.786 417.058 401.588 407.585 404.711 401.589 C 421.331 369.677 426.698 327.773 440.634 294.319 C 476.918 287.446 515.737 287.103 552.306 282.352 C 565.885 280.587 576.758 254.215 582.926 243.071 C 594.115 222.854 604.347 202.089 615.969 182.064 C 637.737 186.063 661.594 188.954 683.624 192.253 C 695.973 194.102 725.512 199.586 736.126 198.987 C 761.218 177.653 790.033 136.896 816.504 113.965 C 839.103 122.396 861.585 131.135 883.945 140.18 C 896.386 145.192 914.927 153.369 927.374 156.828 C 939.625 152.449 967.356 132.434 978.687 124.464 C 993.75 113.737 1008.95 103.209 1024.29 92.8824 z" fill="rgb(254,255,254)" transform="translate(0,0)"></path>
<path d="M 1002.72 190.515 C 1463.73 178.84 1846.81 543.322 1858.07 1004.34 C 1869.33 1465.37 1504.51 1848.12 1043.47 1858.97 C 583.026 1869.8 200.866 1505.54 189.619 1045.1 C 178.372 584.662 542.291 202.175 1002.72 190.515 z" fill="rgb(42,45,59)" transform="translate(0,0)"></path>
<path d="M 988.492 204.818 C 1441.37 185.252 1824.3 536.65 1843.62 989.537 C 1862.95 1442.42 1511.35 1825.17 1058.45 1844.25 C 605.893 1863.32 223.501 1512.04 204.19 1059.49 C 184.879 606.948 535.956 224.37 988.492 204.818 z" fill="rgb(254,255,254)" transform="translate(0,0)"></path>
<path d="M 1013.81 236.477 C 1131.6 235.871 1248.08 261.208 1354.98 310.69 C 1544.46 397.089 1691.35 555.906 1762.72 751.543 C 1836.14 949.771 1827.19 1169.13 1737.86 1360.72 C 1647.38 1555.78 1488.36 1694.29 1287.41 1767.66 C 1094.38 1836.61 881.923 1826.53 696.292 1739.6 C 638.196 1711.96 583.396 1677.88 532.926 1637.98 C 513.452 1622.62 494.997 1608.11 476.891 1591.13 C 387.117 1506.96 321.547 1401.31 280.188 1285.8 C 216.229 1107.16 216.98 881.337 298.11 708.385 C 352.856 698.667 403.735 693.821 459.64 697.333 C 468.525 697.891 482.342 698.214 489.748 702.249 C 489.119 707.473 488.964 710.444 488.947 715.711 C 475.748 720.177 451.317 731.712 439.388 739.033 C 433.564 753.097 428.089 767.303 422.969 781.639 C 426.228 794.592 428.411 808.244 430.696 821.449 C 437.462 818.375 445.221 815.342 452.144 812.453 C 458.742 794.401 464.645 772.951 472.032 755.701 C 480.308 749.708 495.979 742.64 505.544 738.037 C 503.197 725.526 500.994 716.034 500.195 703.221 L 514.846 706.259 C 517.848 717.735 518.697 732.452 521.714 745.386 C 508.764 752.154 495.886 759.059 483.082 766.099 C 476.153 784.566 470.931 803.691 463.68 822.303 C 453.557 827.03 443.749 830.696 433.259 835.783 C 438.281 854.147 444.327 869.926 437.253 888.823 C 430.014 908.161 422.503 927.369 415.013 946.612 C 396.111 956.812 362.447 970.371 341.753 979.312 C 337.002 993.437 329.004 1016.84 323.009 1030.04 L 255.4 1063.16 L 252.722 1050.49 C 268.072 1040.32 294.609 1028.6 311.965 1020.34 C 318.333 1003.03 324.903 985.645 330.542 968.098 C 353.698 956.651 377.736 948.181 402.792 935.588 C 412.226 914.762 418.671 892.566 427.813 872.62 C 424.536 862.778 421.76 851.38 419.06 841.262 C 411.653 843.145 405.842 844.991 398.581 847.435 C 392.191 870.595 385.452 891.284 377.719 913.949 C 372.054 916.921 364.803 919.755 358.812 922.243 C 335.898 931.757 312.943 942.129 289.669 950.674 C 289.167 946.941 289.125 941.426 288.976 937.532 C 306.303 927.733 326.41 921.269 344.411 912.665 C 351.634 909.213 358.886 905.79 366.145 902.416 C 375.047 880.566 379.972 859.135 387.033 836.705 C 396.383 834.125 407.038 829.959 415.977 826.278 C 413.575 817.27 411.321 808.224 409.218 799.142 C 399.183 809.391 389.714 817.575 378.36 826.349 C 348.038 849.521 296.75 875.928 284.177 914.007 C 279.585 927.915 285.677 982.005 286.97 1000.07 C 273.74 1005.46 262.372 1009.89 248.854 1014.79 C 248.951 1064.78 251.018 1101.23 259.372 1151.08 C 291.876 1351.19 402.934 1530.03 567.88 1647.89 C 748.277 1776.15 945.711 1823.7 1164.26 1786.71 C 1309.72 1759.08 1448.54 1689.72 1556.81 1588.18 C 1571.25 1574.64 1590.41 1555.82 1602.93 1540.58 C 1585.89 1542.1 1574.57 1543.85 1557.89 1539.34 C 1563.92 1525.42 1578.62 1500.31 1588.4 1488.9 C 1610.37 1463.29 1636.86 1456.88 1668.79 1454.14 C 1678.84 1437.41 1689.14 1423.42 1698.92 1405.56 C 1800.94 1223.18 1825.44 1007.47 1766.9 806.859 C 1710.55 611.628 1578.7 446.91 1400.55 349.173 C 1222.01 251.311 1010.6 222.009 814.138 279.485 C 631.209 331.162 473.19 447.349 369.319 606.547 C 355.833 626.847 338.153 658.588 326.249 680.296 C 373.922 665.718 433.993 665.085 483.581 668.545 C 550.939 673.243 624.681 708.439 668.858 760.102 C 712.638 811.302 732.929 879.376 725.824 946.486 C 723.425 969.147 715.494 988.74 713.89 1012.35 C 710.509 1062.13 733.449 1088.84 773.835 1114.74 C 783.396 1120.88 796.234 1125.72 803.479 1134.1 C 804.764 1143.2 756.952 1159.73 752.822 1175.05 C 744.708 1205.15 787.353 1213.19 738.848 1229.63 C 763.768 1246.23 748.574 1256.93 729.755 1267.01 C 721.151 1291.62 748.016 1343.88 721.592 1356.34 C 692.907 1369.86 637.48 1345.23 605.761 1336.84 C 559.721 1324.66 538.013 1344.03 527.659 1388.38 C 514.341 1477.11 568.946 1587.16 615.751 1659.21 C 613.917 1658.21 612.101 1657.17 610.303 1656.1 C 578.324 1637.25 550.751 1615.12 522.681 1591.07 C 421.587 1503.49 345.774 1390.45 303.111 1263.68 C 293.528 1235.85 286.21 1207.24 278.785 1178.78 C 285.826 1165.76 308.79 1132.61 320.557 1125.11 C 336.691 1114.81 362.858 1110.45 379.028 1098.18 C 397.847 1083.88 403.315 1057.66 418.04 1041.72 C 430.582 1030.07 456.785 1025.59 469.299 1014.76 C 485.624 1000.63 497.236 971.819 507.946 952.374 C 521.651 944.898 539.488 939.041 552.83 932.51 C 573.827 922.232 582.6 883.156 594.504 859.847 C 644.032 837.604 650.211 844.819 668.623 788.65 C 661.465 769.506 639.25 749.819 623.055 738.208 C 531.229 672.371 426.048 674.793 320.683 691.355 C 313.172 700.368 313.885 698.453 301.324 700.102 C 306.42 688.252 314.279 673.945 320.419 662.422 C 355.901 596.009 400.387 534.816 452.616 480.578 C 599.694 327.699 801.698 239.834 1013.81 236.477 z" fill="rgb(42,45,59)" transform="translate(0,0)"></path>
<path d="M 1053.03 775.119 C 1101.15 775.737 1149.82 774.757 1198.08 775.133 L 1197.77 792.758 C 1183.68 793.92 1168.41 795.543 1157.94 805.669 C 1151.41 822.504 1152.98 853.928 1152.96 872.773 L 1152.95 958.747 L 1153.04 1078.06 C 1153.06 1100.02 1152.82 1122.04 1153.58 1143.98 C 1154.77 1178.25 1167.6 1178.9 1197.06 1183.19 L 1197.89 1199.78 L 1183.26 1199.91 L 1056.24 1199.7 C 1056.35 1194.1 1056.77 1187.98 1057.04 1182.34 C 1077.83 1181.12 1093.63 1176.64 1095.93 1152.94 C 1097.82 1133.5 1097.15 1114.07 1097.14 1094.54 L 1097.12 989.699 C 1042.8 988.961 987.164 989.918 932.651 989.966 C 931.694 1043.21 932.343 1097.93 933.256 1151.25 C 933.701 1177.27 952.356 1179.86 973.99 1182.41 L 974.503 1199.77 C 928.205 1200.94 877.287 1199.71 830.491 1199.83 L 831.142 1181.68 C 863.774 1180.45 874.661 1174.49 874.876 1140.02 C 875.53 1035.23 875.297 930.372 874.912 825.575 C 874.899 821.936 873.385 808.101 871.799 805.537 C 865.683 795.652 843.433 793.513 833.032 791.627 L 832.42 775.186 C 879.576 775.614 926.735 775.633 973.891 775.243 C 973.889 780.528 973.597 786.18 973.421 791.492 C 954.168 794.694 935.548 794.047 933.655 817.904 C 932.18 836.487 932.636 854.204 932.702 872.825 C 932.848 903.231 932.764 933.637 932.449 964.042 C 987.082 963.604 1043.12 964.27 1097.34 963.419 C 1097.17 936.875 1097.16 910.331 1097.3 883.787 C 1097.41 862.186 1097.45 841.839 1095.86 820.28 C 1093.96 794.563 1075.85 794.521 1054.16 791.477 L 1053.03 775.119 z" fill="rgb(42,45,59)" transform="translate(0,0)"></path>
<path d="M 1324.34 547.332 C 1338.57 562.238 1337.37 577.369 1337.05 595.832 C 1361.39 615.293 1347.94 633.414 1330.59 650.677 L 1331.88 650.983 C 1345.71 654.362 1350.36 659.345 1357.41 671.005 C 1435.03 662.558 1494.6 703.737 1558.15 740.939 C 1567.72 746.544 1588.98 757.777 1600.37 753.807 C 1609.46 749.993 1605.86 738.777 1609.79 731.604 C 1611.55 728.401 1617.59 725.481 1620.5 727.829 C 1630.15 735.623 1621.66 756.872 1615.31 764.175 C 1609.57 770.768 1595.88 769.994 1587.85 770.12 C 1591.43 779.233 1595.79 788.546 1599.85 797.494 C 1628.62 860.969 1657.49 924.202 1685.2 988.143 C 1689.83 988.922 1694.87 989.425 1699.05 991.326 L 1699.18 991.952 C 1694.11 999.175 1692.64 1007 1688.28 1014.75 C 1672.5 1042.85 1657.16 1046.38 1632.15 1058.39 C 1630.65 1061 1631.63 1061.87 1632.41 1065.8 L 1630.54 1067.25 C 1630.09 1065.62 1629.56 1063.7 1628.95 1061.5 C 1627.71 1059.27 1612.37 1063.07 1608.93 1063.63 C 1576.07 1068.9 1542.42 1061.88 1514.4 1043.92 C 1500.02 1034.57 1482.22 1017 1479.28 999.627 C 1478.74 996.453 1476.33 997.132 1474.3 992.806 C 1477.53 989.531 1483.99 989.159 1488.62 988.617 C 1508.35 939.289 1528.73 890.225 1549.77 841.439 C 1559.75 818.19 1571.06 793.963 1580.34 770.591 C 1521.61 742.824 1453.29 699.35 1387.14 700.021 C 1380.05 700.093 1363.44 700.827 1357.02 703.403 C 1342.48 709.241 1337.9 716.642 1320.38 715.142 C 1307.36 714.027 1299.2 705.112 1288.86 701.116 C 1261.66 690.604 1226.65 689.145 1198.08 692.037 C 1183.5 693.532 1169.02 695.787 1154.68 698.792 C 1124.16 705.5 1091.48 715.449 1060.16 714.994 C 1042.88 714.743 1019.94 707.657 1021.19 686.446 C 1021.91 674.186 1038.25 667.282 1044.52 678.131 C 1045.79 685.412 1040.49 687.353 1043.38 694.729 C 1046.49 697.227 1049.83 698.691 1054.05 698.406 C 1100.88 695.249 1144.8 675.117 1191.02 667.318 C 1226.33 661.361 1258.89 662.381 1293.76 669.734 C 1301.55 657.934 1308.91 654.194 1321.81 650.05 C 1300.89 635.334 1289.5 615.03 1313.75 596.06 C 1311.38 575.562 1312.77 564.789 1324.34 547.332 z" fill="rgb(42,45,59)" transform="translate(0,0)"></path>
<path d="M 1494.69 987.765 C 1501.76 966.307 1516.36 934.103 1525.38 912.966 L 1569.26 809.427 C 1571.36 804.586 1581.23 779.509 1583.47 776.986 C 1585.26 779.228 1585.33 781.981 1585.96 785.101 L 1588.31 786.675 C 1595 792.937 1670.23 966.174 1680.15 987.949 C 1659.11 985.999 1638.03 984.61 1616.92 983.784 C 1613.32 983.616 1590.86 982.982 1588.63 982.502 L 1586.13 982.476 C 1580.54 983.647 1557.25 984.065 1549.77 984.353 C 1531.38 984.987 1513.02 986.125 1494.69 987.765 z" fill="rgb(254,255,254)" transform="translate(0,0)"></path>
<path d="M 1588.31 786.675 C 1595 792.937 1670.23 966.174 1680.15 987.949 C 1659.11 985.999 1638.03 984.61 1616.92 983.784 C 1613.32 983.616 1590.86 982.982 1588.63 982.502 C 1589.54 932.382 1588.7 881.581 1589.1 831.398 C 1589.22 816.533 1588.18 801.273 1588.31 786.675 z" fill="rgb(254,255,254)" transform="translate(0,0)"></path>
<path d="M 1585.96 785.101 L 1588.31 786.675 C 1588.18 801.273 1589.22 816.533 1589.1 831.398 C 1588.7 881.581 1589.54 932.382 1588.63 982.502 L 1586.13 982.476 C 1586.55 916.685 1586.49 850.891 1585.96 785.101 z" fill="rgb(28,28,29)" transform="translate(0,0)"></path>
<path d="M 1548.25 993.533 C 1593.6 992.44 1648.26 992.283 1693.27 994.605 C 1674.02 1002.96 1648.02 1004.56 1627.25 1005.92 C 1582.45 1008.05 1524.57 1007.81 1481.28 996.181 C 1501.36 993.829 1528.02 993.778 1548.25 993.533 z" fill="rgb(254,255,254)" transform="translate(0,0)"></path>
<path d="M 1315.76 721.865 C 1322.32 722.217 1328.88 722.063 1335.45 722.001 L 1346.88 1097.88 C 1348.23 1141.02 1349.24 1184.18 1349.92 1227.34 C 1350.14 1242.31 1350.83 1257.22 1351.03 1272.19 C 1351.2 1283.93 1341.85 1288.63 1332.01 1292.15 C 1319.3 1294.61 1298.91 1290.57 1298.84 1274.43 C 1298.75 1255.24 1300.32 1235.96 1300.75 1216.75 C 1301.73 1165.82 1303.1 1114.89 1304.86 1063.98 L 1312.12 830.704 C 1313.31 795.139 1313.66 757.228 1315.76 721.865 z" fill="rgb(42,45,59)" transform="translate(0,0)"></path>
<path d="M 1281.69 1271.4 L 1287.39 1270.82 C 1291.48 1273.11 1289.84 1285.09 1298.17 1293.08 C 1317.15 1311.29 1362.84 1302.48 1359.37 1271.78 C 1382.29 1274.62 1454.54 1282.66 1466.68 1310.86 C 1467.33 1312.39 1465.84 1316.9 1464.52 1318.23 C 1447.39 1335.46 1415.77 1341.91 1393 1345.72 C 1336.72 1354.52 1236.48 1356.31 1185.09 1325.85 C 1182.35 1324.42 1175.47 1318.14 1176.11 1314.46 C 1181.65 1282.89 1260.45 1273.72 1281.69 1271.4 z" fill="rgb(42,45,59)" transform="translate(0,0)"></path>
<path d="M 997.59 404.431 C 1025.74 401.782 1078.68 404.506 1106.53 408.375 C 1280.78 432.579 1415.43 512.421 1521.68 650.907 L 1506.54 651.366 C 1502.63 646.078 1498.53 640.934 1494.25 635.942 C 1380.79 501.851 1243.47 431.942 1068.24 417.401 C 1052.13 415.796 1022.02 415.905 1006.12 416.38 C 872.167 420.763 743.366 469.055 639.55 553.823 C 612.429 576.128 587.653 599.809 564.314 626.077 C 558.703 632.393 551.647 643.875 542.779 642.443 C 540.295 640.433 540.115 640.643 539.142 637.684 C 539.784 633.689 554.33 618.48 558.116 614.292 C 670.242 487.842 828.764 412.144 997.59 404.431 z" fill="rgb(42,45,59)" transform="translate(0,0)"></path>
<path d="M 594.595 1418.73 C 597.823 1420.6 610.249 1433.57 613.537 1436.96 C 720.297 1545.77 865.797 1607.89 1018.22 1609.72 C 1144.91 1611.36 1268.53 1570.73 1369.55 1494.25 C 1397.25 1473.35 1419.68 1452.01 1444.5 1427.95 L 1460.17 1428.28 L 1450.19 1439.09 C 1444.42 1445.1 1438.56 1451.01 1432.6 1456.83 C 1320.33 1566.45 1168.63 1626.22 1011.76 1622.63 C 879.406 1619.5 751.944 1571.98 649.839 1487.71 C 625.225 1467.52 607.025 1449.27 585.349 1426.57 L 594.595 1418.73 z" fill="rgb(42,45,59)" transform="translate(0,0)"></path>
<path d="M 600.346 738.388 C 606.566 741.098 614.817 746.228 620.073 750.577 C 624.563 773.025 626.237 783.108 618.872 804.747 C 597.342 812.244 581.715 818.615 561.476 828.69 C 555.084 840.801 542.383 878.527 538.22 892.663 C 521.207 900.446 496.134 909.414 478.028 916.966 C 471.654 932.174 453.037 967.037 449.731 979.953 C 431.182 989.395 402.216 1000.76 382.037 1009.83 C 379.305 1017.62 363.134 1056.61 358.933 1060 C 342.81 1073.02 305.719 1082.63 287.229 1094.66 C 282.357 1097.83 272.427 1111.34 268.455 1116.49 L 261.889 1125.66 C 260.33 1119.29 259.318 1114.05 258.197 1107.57 C 275.461 1079.5 286.666 1078.11 314.784 1065.79 C 326.211 1060.76 337.532 1055.49 348.738 1049.99 C 357.037 1033.46 364.127 1015.49 372.111 998.607 C 393.832 988.112 415.817 978.631 437.356 968.222 C 446.392 952.957 459.582 921.903 467.63 904.552 C 487.448 897.304 506.839 888.176 526.77 880.615 C 532.713 862.932 543.602 830.872 550.982 814.917 C 572.687 806.677 588.237 800.626 608.937 790.569 C 607.932 771.762 604.284 756.721 600.346 738.388 z" fill="rgb(42,45,59)" transform="translate(0,0)"></path>
<path d="M 625.699 756.457 C 632.79 758.975 644.068 778.489 648.919 785.528 C 643.599 798.605 638.877 810 632.756 822.69 C 618.058 830.141 595.201 838.272 582.507 846.713 C 569.449 855.396 560.535 904.414 548.382 913.168 C 536.94 921.408 509.048 931.027 494.579 938.154 C 486.824 950.85 466.407 992.836 458.242 999.249 C 450.225 1005.55 414.307 1021.33 402.531 1027.35 C 394.722 1043.02 380.487 1072.43 366.549 1082.96 C 353.052 1093.15 319.615 1100.86 306.541 1110.04 C 298.628 1115.59 281.237 1141.19 274.787 1149.78 L 268.759 1157.18 C 267.534 1151.15 266.428 1144.95 265.278 1138.9 C 272.467 1130.51 284.813 1109.55 292.86 1102.22 C 308.621 1087.86 348.483 1082.07 363.447 1066.99 C 371.401 1058.97 387.918 1026.46 391.009 1015.94 C 410.417 1007.78 432.664 996.386 451.873 987.146 C 461.008 967.495 474.364 945.724 484.323 925.234 C 501.565 917.326 522.629 909.201 540.417 901.884 C 545.555 885.749 560.613 852.801 567.902 835.947 C 582.783 829.591 606.844 819.047 620.737 811.397 C 621.304 810.47 621.861 809.536 622.406 808.595 C 635.202 786.701 631.561 779.118 625.699 756.457 z" fill="rgb(42,45,59)" transform="translate(0,0)"></path>
<path d="M 1466.89 1327.76 C 1467.04 1338 1468.78 1346.3 1463.47 1354.53 C 1421.01 1401.88 1204.09 1406.49 1175.09 1350.67 L 1175.96 1328.65 L 1177.16 1329.85 L 1178.16 1330.88 C 1220.26 1373.36 1422.5 1371.76 1466.89 1327.76 z" fill="rgb(42,45,59)" transform="translate(0,0)"></path>
<path d="M 1013.5 426.452 C 1068.63 423.97 1133.81 432.808 1186.83 447.227 C 1289.93 474.894 1383.23 530.87 1456.15 608.82 C 1463.74 617.037 1484.8 640.17 1489.88 649.041 L 1488.78 651.016 L 1486.67 651.488 C 1481.94 649.662 1479.54 647.028 1476.43 643.231 C 1397.35 546.764 1287.19 478.265 1165.68 450.037 C 1132.68 442.372 1102.75 438.399 1068.41 435.412 C 1053.09 433.417 1018.13 433.656 1002.1 434.274 C 844.673 440.663 696.179 509.141 589.106 624.729 C 586.017 628.029 582.596 631.648 577.881 631.825 L 576.635 630.467 C 577.377 625.111 581.424 621.511 585.094 617.629 C 695.933 498.265 850.633 429.229 1013.5 426.452 z" fill="rgb(42,45,59)" transform="translate(0,0)"></path>
<path d="M 626.11 1423.88 C 634.774 1431.71 643.675 1442.22 653.622 1451.13 C 688.28 1482.09 726.698 1508.57 767.969 1529.94 C 947.126 1622.85 1162.5 1611.71 1331.12 1500.81 C 1351.68 1487.01 1371.3 1471.86 1389.88 1455.48 C 1395.62 1450.46 1416.45 1428.77 1421.37 1427.52 C 1424.05 1426.84 1426.01 1426.9 1428.44 1428.19 L 1428.64 1429.94 L 1425.28 1433.52 C 1421.4 1437.61 1417.41 1441.6 1413.32 1445.48 C 1305.46 1547.99 1161.36 1603.56 1012.6 1600.01 C 864.208 1597.23 722.969 1535.75 619.83 1429.02 L 626.11 1423.88 z" fill="rgb(42,45,59)" transform="translate(0,0)"></path>
<path d="M 1688.75 805.594 C 1688.9 805.691 1689.05 805.788 1689.21 805.885 C 1709.94 827.057 1727.11 865.003 1724.94 894.484 C 1723.35 916.05 1715.33 936.809 1704.95 952.64 C 1692.57 947.811 1676.47 920.829 1672.82 908.002 C 1662.37 871.321 1671.63 838.341 1688.75 805.594 z" fill="rgb(42,45,59)" transform="translate(0,0)"></path>
<path d="M 1738.99 1236.21 L 1739.78 1237.96 C 1738.05 1260.64 1725.28 1294.53 1708.2 1310.23 C 1686.6 1330.08 1667.7 1335.52 1639.66 1335.33 C 1634.47 1324.17 1643.96 1299.38 1649.8 1288.86 C 1667.29 1257.39 1706.34 1244.81 1738.99 1236.21 z" fill="rgb(42,45,59)" transform="translate(0,0)"></path>
<path d="M 1483.29 1465.67 C 1499.79 1482.06 1511.44 1506.26 1514.49 1529.24 C 1515.76 1538.81 1515.6 1547.58 1516.59 1557.03 L 1518.05 1559.25 C 1500.56 1581.2 1491.11 1586.37 1467.85 1599.96 C 1456.85 1584.64 1453.24 1569.78 1455.22 1551.04 C 1458.3 1521.88 1466.11 1489.91 1483.29 1465.67 z" fill="rgb(42,45,59)" transform="translate(0,0)"></path>
<path d="M 1552.27 1137.1 C 1567.18 1143.23 1587.87 1165.85 1595.97 1179.71 C 1613.58 1209.81 1616.29 1239.1 1608.24 1272.29 L 1606.52 1273.03 C 1600 1271.36 1586.68 1263.1 1580.99 1258.77 C 1544.71 1231.17 1545.8 1176.01 1552.27 1137.1 z" fill="rgb(42,45,59)" transform="translate(0,0)"></path>
<path d="M 1350.02 1604.83 C 1351.74 1606.01 1352.16 1607.03 1352.9 1608.97 C 1372.9 1661.36 1369.69 1709.63 1312.38 1732.64 C 1308.19 1733.1 1310 1733.55 1306.66 1731.86 C 1303.66 1727.69 1302.8 1721.62 1301.48 1716.67 C 1290.59 1675.93 1318.39 1629.24 1350.02 1604.83 z" fill="rgb(42,45,59)" transform="translate(0,0)"></path>
<path d="M 1744.9 1036.04 C 1745.31 1036.76 1745.87 1037.61 1745.93 1038.45 C 1748.4 1073.59 1735.9 1113.62 1705.12 1133.56 C 1691.79 1142.2 1678.77 1145.62 1663.37 1147.56 C 1656.65 1087.47 1691.03 1055.41 1744.9 1036.04 z" fill="rgb(42,45,59)" transform="translate(0,0)"></path>
<path d="M 1582.55 1444.38 C 1572.16 1432.06 1568.89 1427.49 1561.88 1413.04 C 1548.07 1384.58 1555.83 1331.48 1567.78 1302.71 C 1584.54 1317.44 1597.42 1333.89 1604.09 1355.39 C 1606.04 1361.68 1606.05 1369.09 1608.38 1374.85 L 1610.81 1375.62 C 1606.28 1395.92 1603.41 1411.43 1594.14 1430.46 C 1589.5 1439.99 1582.35 1450.91 1578.62 1459.8 L 1576.25 1458.52 C 1576.9 1456 1581.22 1447.23 1582.55 1444.38 z" fill="rgb(42,45,59)" transform="translate(0,0)"></path>
<path d="M 1089.88 308.279 C 1108.46 304.451 1126.63 316.44 1130.41 335.035 C 1134.2 353.631 1122.17 371.766 1103.56 375.508 C 1085.02 379.239 1066.95 367.255 1063.18 348.721 C 1059.41 330.186 1071.35 312.095 1089.88 308.279 z" fill="rgb(42,45,59)" transform="translate(0,0)"></path>
<path d="M 1094.34 316.667 C 1103.28 315.814 1111.99 319.832 1117.15 327.187 C 1122.31 334.542 1123.12 344.1 1119.27 352.217 C 1115.42 360.333 1107.51 365.756 1098.55 366.417 C 1084.9 367.424 1072.99 357.257 1071.83 343.622 C 1070.68 329.987 1080.72 317.965 1094.34 316.667 z" fill="rgb(254,255,254)" transform="translate(0,0)"></path>
<path d="M 550.548 715.207 C 555.638 716.79 561.86 719.657 566.868 721.776 C 566.726 732.295 571.697 761.889 572.519 776.643 C 555.379 783.294 538.356 790.244 521.457 797.489 C 515.071 816.532 509.758 839.392 502.199 857.768 C 486.738 863.824 471.413 870.224 456.236 876.961 L 444.833 881.904 C 444.902 876.607 444.556 871.594 444.257 866.316 C 457.623 859.517 478.014 851.423 492.071 845.471 C 497.448 827.796 504.518 802.043 511.302 785.736 L 557.374 766.334 C 555.912 750.591 552.717 731.157 550.548 715.207 z" fill="rgb(42,45,59)" transform="translate(0,0)"></path>
<path d="M 897.247 314.393 C 918.147 311.101 923.126 322.673 922.879 340.605 C 919.087 346.995 917.126 348.354 911.125 352.59 C 919.704 361.325 927.766 368.991 937.319 376.643 L 925.858 377.786 C 920.852 373.893 915.413 368.97 910.562 364.771 C 908.352 362.769 906.102 360.812 903.813 358.901 C 901.354 356.887 898.961 354.957 895.758 355.267 C 890.402 363.016 903.521 377.289 894.903 384.306 C 890.925 384.817 892.189 385.446 889.684 383.922 C 887.446 378.411 888.244 374.027 887.159 368.725 C 883.673 351.704 882.204 333.933 878.685 316.983 C 884.856 315.856 891.023 315.169 897.247 314.393 z" fill="rgb(42,45,59)" transform="translate(0,0)"></path>
<path d="M 898.322 322.33 C 913.915 321.657 921.004 337.749 905.597 345.907 L 893.395 348.375 C 892.323 339.774 889.42 332.991 890.746 325.015 C 893.187 322.07 893.146 323.014 898.322 322.33 z" fill="rgb(254,255,254)" transform="translate(0,0)"></path>
<path d="M 1019.35 303.678 C 1021.83 306.011 1035.37 368.024 1031.94 371.832 C 1026.4 372.039 1024.75 369.514 1023.71 364.19 L 1016.41 328.609 C 1011.1 342.419 1003.51 358.177 997.615 372.325 C 995.415 367.255 977.348 333.543 974.605 330.749 L 973.584 332.24 C 972.408 345.798 971.395 359.369 970.546 372.951 C 967.778 373.09 962.98 373.918 961.347 372.551 C 961.448 359.826 967.273 317.311 969.436 303.572 C 978.235 319.918 988.278 335.528 997.085 352.106 L 1019.35 303.678 z" fill="rgb(42,45,59)" transform="translate(0,0)"></path>
<path d="M 1170.33 314.47 C 1174.45 317.248 1203.42 365.424 1208.51 373.251 C 1209.47 362.54 1215.36 337.217 1217.67 326.114 C 1221.18 326.903 1221.74 327.066 1225.05 328.452 C 1226.44 332.189 1214.6 385.118 1212.67 394.525 C 1211.72 394.715 1212.4 394.662 1210.74 393.916 C 1206.09 384.624 1197.7 373.459 1191.96 364.437 C 1185.91 354.942 1180.57 345.824 1174.91 336.077 C 1172.25 349.158 1170.4 362.277 1167.68 375.262 C 1166.89 379.067 1165.3 381.724 1161.87 383.635 C 1159.19 383.697 1160.39 383.995 1158.28 382.434 C 1156.86 376.146 1168.47 324.004 1170.33 314.47 z" fill="rgb(42,45,59)" transform="translate(0,0)"></path>
<path d="M 1333.55 361.82 L 1334.43 362.818 C 1335.19 369.821 1335.76 432.03 1334.51 437.724 L 1332.75 438.232 C 1322.6 435.486 1325.78 424.439 1325.53 414.875 C 1317.1 411.955 1308.18 407.837 1299.25 404.693 L 1283.97 418.369 L 1275.19 413.947 C 1294.05 395.613 1314.06 381.035 1333.55 361.82 z" fill="rgb(42,45,59)" transform="translate(0,0)"></path>
<path d="M 1324.78 381.885 C 1326.93 384.22 1326.28 402.791 1326.29 407.232 C 1321.88 405.274 1317.35 403.015 1312.98 400.92 L 1306.35 398.04 C 1312.36 392.511 1318.51 387.125 1324.78 381.885 z" fill="rgb(254,255,254)" transform="translate(0,0)"></path>
<path d="M 749.916 352.564 L 751.927 353.26 C 757.224 364.156 762.283 376.86 767.276 388.019 C 770.113 394.359 776.828 408.602 778.443 414.774 C 776.391 417.076 773.412 417.46 770.305 418.355 C 766.155 410.918 761.29 399.033 757.712 390.971 C 747.6 395.484 739.677 398.402 729.306 402.076 C 733.059 411.393 736.757 420.732 740.4 430.092 C 738.887 432.288 736.498 432.63 733.519 433.882 L 732.323 433.686 C 730.864 432.251 708.167 378.104 704.618 370.976 L 714.438 367.427 C 718.085 377.153 722.067 386.75 726.377 396.201 C 735.153 392.342 745.213 387.254 753.964 383.066 C 751.232 374.631 743.317 361.286 745.541 354.676 L 749.916 352.564 z" fill="rgb(42,45,59)" transform="translate(0,0)"></path>
<path d="M 814.489 331.448 C 815.443 331.969 859.942 384.606 862.991 389.357 C 853.597 398.268 846.486 379.786 839.755 378.187 C 833.233 379.542 822.233 383.182 815.528 385.175 C 814.828 394.686 816.468 403.105 806.431 406.334 L 805.474 405.308 C 805.196 389.32 811.698 349.069 814.489 331.448 z" fill="rgb(42,45,59)" transform="translate(0,0)"></path>
<path d="M 820.099 350.607 C 823.548 353.49 834.287 367.083 833.651 371.263 L 830.759 372.262 C 826.537 373.035 820.789 374.74 816.518 375.868 C 817.48 367.416 818.675 358.993 820.099 350.607 z" fill="rgb(254,255,254)" transform="translate(0,0)"></path>
<path d="M 1632.41 1065.8 C 1645.68 1114.3 1658.26 1162.24 1650.88 1213.03 C 1647.33 1237.48 1640.53 1265.53 1634.29 1289.66 C 1627.29 1316.71 1620.09 1349.54 1610.81 1375.62 L 1608.38 1374.85 C 1620.87 1336.58 1629.64 1297.27 1639.13 1258.19 C 1646.56 1227.59 1652.02 1198.92 1649.88 1167.15 C 1647.56 1132.74 1638.81 1100.54 1630.54 1067.25 L 1632.41 1065.8 z" fill="rgb(28,28,29)" transform="translate(0,0)"></path>
<path d="M 1263.06 339.372 C 1266.55 340.235 1267.77 340.324 1270.84 342.343 C 1270.8 349.435 1255.13 394.698 1252.09 406.129 C 1249 405.357 1247.96 405.023 1245 403.859 C 1242.53 398.916 1260.31 347.818 1263.06 339.372 z" fill="rgb(42,45,59)" transform="translate(0,0)"></path>
<path d="M 1576.25 1458.52 L 1578.62 1459.8 C 1571.21 1475.46 1559.92 1500.82 1550.13 1515.08 C 1525.62 1550.79 1505.55 1598.52 1473.66 1627.58 C 1474.05 1625.14 1479.4 1618.88 1481.42 1616.8 C 1489.7 1608.28 1524.09 1563.59 1522.39 1554.35 C 1520.13 1556.47 1519.84 1556.74 1518.05 1559.25 L 1516.59 1557.03 C 1520.09 1552.15 1524.39 1546.88 1528.21 1542.23 C 1548.82 1517.13 1562.1 1487.42 1576.25 1458.52 z" fill="rgb(28,28,29)" transform="translate(0,0)"></path>
<path d="M 1755.54 1612.89 C 1759.44 1612.8 1764.83 1617.44 1768.13 1619.83 C 1741.85 1630.59 1706.25 1640.51 1678.77 1648.55 L 1678.18 1648.69 C 1672.94 1650.08 1671.44 1650.92 1666.13 1650.03 L 1665.59 1648.87 C 1672.91 1643.12 1742.55 1617.75 1755.54 1612.89 z" fill="rgb(254,255,254)" transform="translate(0,0)"></path>
<path d="M 1232.21 97.0748 C 1233.86 97.277 1233.13 97.181 1234.75 98.53 C 1234.84 102.157 1235.44 102.42 1233.95 105.199 C 1223.06 112.867 1149.45 135.635 1135.47 137.713 L 1133.37 137.351 C 1150.63 126.554 1211.99 102.932 1232.21 97.0748 z" fill="rgb(254,255,254)" transform="translate(0,0)"></path>
<path d="M 1862.13 1323.68 C 1867.58 1327.84 1884.27 1420.96 1885.14 1433.26 L 1873.42 1428.95 C 1869.07 1392.39 1865.18 1360.67 1862.13 1323.68 z" fill="rgb(254,255,254)" transform="translate(0,0)"></path>
<path d="M 1134.8 1912.08 C 1148.67 1912.03 1215.28 1934.92 1231.69 1940.45 C 1233.76 1945.63 1234.65 1947.22 1235.25 1952.86 C 1218.5 1949.81 1151.64 1920.72 1134.8 1912.08 z" fill="rgb(254,255,254)" transform="translate(0,0)"></path>
<path d="M 710.55 1863.46 C 711.794 1863.23 715.629 1863.49 717.112 1863.55 C 684.404 1872.12 651.421 1879.61 618.216 1885.99 C 614.095 1886.57 615.595 1887.19 613.014 1885.37 C 612.537 1880.7 615.828 1874.16 620.672 1873.31 C 650.046 1868.15 680.769 1865.7 710.55 1863.46 z" fill="rgb(254,255,254)" transform="translate(0,0)"></path>
<path d="M 1786.89 555.921 C 1803.33 560.871 1861.39 593.358 1876.2 606.448 C 1877.49 607.59 1876.72 608.7 1876.28 610.953 C 1874.61 611.707 1873.73 611.98 1872 612.562 C 1858.42 608.797 1798.12 566.4 1786.89 555.921 z" fill="rgb(254,255,254)" transform="translate(0,0)"></path>
<path d="M 184.393 1329.79 C 187.801 1335.34 174.781 1415.35 172.923 1427.68 L 161.271 1431.29 C 161.16 1431.17 161.006 1431.08 160.939 1430.93 C 158.342 1425.13 180.759 1341.19 184.393 1329.79 z" fill="rgb(254,255,254)" transform="translate(0,0)"></path>
<path d="M 1779.4 1501.72 C 1781.38 1512 1774.33 1596.61 1771.3 1607.43 C 1767.59 1608.4 1767.24 1607.48 1762.84 1606.14 C 1762.63 1605.97 1762.36 1605.86 1762.2 1605.64 C 1758.98 1601.26 1775.99 1511.95 1779.4 1501.72 z" fill="rgb(254,255,254)" transform="translate(0,0)"></path>
<path d="M 817.004 96.3147 C 830.929 98.8417 899.603 128.496 914.093 136.716 C 893.211 133.723 836.396 116.023 817.824 106.854 C 816.529 104.143 816.964 99.5462 817.004 96.3147 z" fill="rgb(254,255,254)" transform="translate(0,0)"></path>
<path d="M 1620.94 287.189 C 1625.78 294.033 1653.38 383.621 1651.77 388.734 L 1650.04 387.543 C 1640.04 368.81 1617.95 311.707 1614.45 292.13 C 1616.32 289.034 1617.27 289.282 1620.94 287.189 z" fill="rgb(254,255,254)" transform="translate(0,0)"></path>
<path d="M 1603.52 1761.41 C 1606.69 1760.99 1606.69 1760.78 1609.7 1761.62 C 1612.54 1764 1613.23 1767.55 1614.43 1771.17 C 1593.34 1774.21 1548.79 1775.67 1526.25 1776.27 C 1520.59 1776.36 1515.13 1775.97 1509.49 1775.64 C 1533.97 1768.62 1577.89 1764.13 1603.52 1761.41 z" fill="rgb(254,255,254)" transform="translate(0,0)"></path>
<path d="M 425.817 285.889 C 428.097 287.189 431.581 289.642 433.864 291.14 C 424.035 321.894 411.418 355.893 400.024 386.261 C 399.534 387.254 399.128 387.394 398.217 388.212 C 394.13 378.831 421.312 298.489 425.817 285.889 z" fill="rgb(254,255,254)" transform="translate(0,0)"></path>
<path d="M 1493.68 1784.95 C 1492.45 1799.43 1451.5 1863.85 1441.79 1878.4 L 1440.47 1878.38 L 1436.42 1869.12 C 1455.95 1839.9 1471.52 1812.93 1493.68 1784.95 z" fill="rgb(254,255,254)" transform="translate(0,0)"></path>
<path d="M 1507.19 271.522 C 1519.53 270.217 1602.95 273.813 1611.6 279.11 C 1612.47 281.924 1611.25 284.084 1610.24 286.995 C 1599.34 287.137 1511.25 275.855 1507.19 271.522 z" fill="rgb(254,255,254)" transform="translate(0,0)"></path>
<path d="M 1665.43 399.094 C 1676.12 398.532 1750.17 420.754 1760.09 426.705 C 1761.63 430.142 1760.97 429.668 1760.21 434.176 C 1759.45 434.392 1757.54 434.995 1757.03 434.842 C 1741.22 430.094 1673.4 407.003 1665.43 399.094 z" fill="rgb(254,255,254)" transform="translate(0,0)"></path>
<path d="M 1422.62 165.339 C 1429.49 164.309 1434.39 166.97 1429.24 173.67 C 1410.13 179.397 1355.05 184.8 1334.75 186.261 C 1331.96 186.633 1331.32 186.588 1328.48 186.464 L 1329.09 185.589 C 1351.14 177.871 1398.78 169.297 1422.62 165.339 z" fill="rgb(254,255,254)" transform="translate(0,0)"></path>
<path d="M 1328.49 1864.89 C 1354.84 1864.43 1402.39 1871.77 1429.75 1875.49 C 1430.87 1880.66 1431.3 1882.41 1433.33 1887.25 C 1409.15 1884.71 1351.4 1872.55 1328.49 1864.89 z" fill="rgb(254,255,254)" transform="translate(0,0)"></path>
<path d="M 907.382 1912.18 L 909.42 1912.19 C 908.353 1913.68 900.225 1916.77 897.764 1917.94 C 872.571 1929.9 843.032 1943.76 816.25 1951.33 C 814.705 1951.55 815.516 1951.67 813.905 1950.6 C 813.639 1947.77 813.922 1946.26 814.245 1943.48 C 815.513 1941.57 817.255 1939.87 819.446 1939.09 C 848.201 1928.89 878.06 1920.23 907.382 1912.18 z" fill="rgb(254,255,254)" transform="translate(0,0)"></path>
<path d="M 604.167 168.684 L 609.613 178.98 C 591.72 207.396 578.861 231.496 559.155 260.481 L 557.961 261.542 L 556.962 261.111 C 560.432 245.297 594.373 186.045 604.167 168.684 z" fill="rgb(254,255,254)" transform="translate(0,0)"></path>
<path d="M 611.9 163.817 C 639.89 167.482 688.002 176.179 714.842 183.768 C 695.335 186.179 639.212 178.277 616.892 175.643 C 615.178 170.512 614.556 168.468 611.9 163.817 z" fill="rgb(254,255,254)" transform="translate(0,0)"></path>
<path d="M 1307.18 1873.93 L 1307.46 1875.75 C 1301.93 1885.85 1253.26 1940.65 1244.45 1945.94 L 1242.95 1945.45 C 1240.7 1941.91 1239.67 1941.63 1239.63 1938.14 C 1252.62 1921.71 1290.11 1887.51 1307.18 1873.93 z" fill="rgb(254,255,254)" transform="translate(0,0)"></path>
<path d="M 439.035 1762.2 C 454.573 1764.42 533.851 1771.57 541.49 1777.24 L 539.202 1777.19 C 505.812 1776.37 464.439 1776.05 431.705 1771.5 C 434.12 1767.99 436.306 1765.45 439.035 1762.2 z" fill="rgb(254,255,254)" transform="translate(0,0)"></path>
<path d="M 1869.52 729 C 1883.48 740.803 1935.65 790.146 1943.46 804.948 L 1942.98 806.626 C 1941.33 807.541 1938.84 808.999 1937.05 807.711 C 1915.72 792.301 1884.95 746.959 1868.87 730.307 L 1869.52 729 z" fill="rgb(254,255,254)" transform="translate(0,0)"></path>
<path d="M 1869.36 1437.76 C 1873.9 1437.53 1877.61 1440.45 1881.4 1442.85 C 1851.99 1460.42 1825.33 1472.46 1794.35 1486.8 C 1789.02 1489.3 1786.95 1489.65 1781.37 1490.88 C 1811.57 1473.77 1838.73 1454.91 1869.36 1437.76 z" fill="rgb(254,255,254)" transform="translate(0,0)"></path>
<path d="M 1439.39 169.526 C 1445.73 175.1 1489.49 250.996 1493.82 261.535 L 1493.01 262.85 C 1472.43 238.729 1452.27 206.477 1435.73 179.369 L 1439.39 169.526 z" fill="rgb(254,255,254)" transform="translate(0,0)"></path>
<path d="M 135.745 933.008 C 134.39 940.448 92.7122 1009.87 84.0301 1020.39 C 82.4594 1022.29 78.8946 1021.76 76.2511 1021.76 C 75.8126 1021.26 75.3788 1020.2 75.055 1019.54 C 79.6627 1005.21 124.198 946.217 135.745 933.008 z" fill="rgb(254,255,254)" transform="translate(0,0)"></path>
<path d="M 1649.39 1663.69 C 1651.71 1673.25 1627.89 1751.67 1621.1 1760.37 L 1619.13 1760.14 C 1618.02 1758.96 1615.14 1756.05 1615.39 1754.94 C 1619.37 1737.19 1642 1676.82 1649.39 1663.69 z" fill="rgb(254,255,254)" transform="translate(0,0)"></path>
<path d="M 520.379 270.443 C 528.822 270.131 535.535 270.243 543.997 270.557 C 521.488 276.875 477.383 281.586 453.232 284.736 L 440.744 285.852 C 437.493 283.762 435.222 281.498 432.366 278.901 C 451.333 273.707 500.508 271.219 520.379 270.443 z" fill="rgb(254,255,254)" transform="translate(0,0)"></path>
<path d="M 288.955 1615.77 C 301.825 1617.64 376.538 1641.63 383.89 1648.49 L 380.705 1648.49 C 348.604 1640.78 311.765 1632.2 280.249 1623.28 L 288.955 1615.77 z" fill="rgb(254,255,254)" transform="translate(0,0)"></path>
<path d="M 175.042 1436.96 C 183.198 1437.1 250.277 1484.05 259.966 1493.24 L 259.254 1493.58 L 256.123 1492.37 L 164.422 1441.37 L 175.042 1436.96 z" fill="rgb(254,255,254)" transform="translate(0,0)"></path>
<path d="M 399.037 1661.76 C 403.761 1665.99 432.134 1749.56 432.311 1757.71 L 430.304 1759.68 C 428.3 1761.5 427.452 1762.06 425.189 1763.57 C 420.574 1754.95 399.81 1673.11 399.037 1661.76 z" fill="rgb(254,255,254)" transform="translate(0,0)"></path>
<path d="M 278.024 435.19 L 287.529 440.076 C 285 465.567 276.554 513.636 271.656 538.76 C 271.206 540.179 270.693 541.426 270.155 542.812 C 267.04 536.287 276.274 449.538 278.024 435.19 z" fill="rgb(254,255,254)" transform="translate(0,0)"></path>
<path d="M 806.551 100.791 C 807.522 102.331 809.574 107.937 808.904 108.932 C 798.246 124.776 750.325 167.915 738.572 177.619 C 738.111 177.657 738.47 177.686 737.191 177.159 C 742.275 166.604 795.221 110.492 806.551 100.791 z" fill="rgb(254,255,254)" transform="translate(0,0)"></path>
<path d="M 1909.04 1125.84 C 1912.27 1131.72 1917.34 1147.79 1920.43 1155.38 C 1931.31 1182.07 1941.74 1207.73 1950.61 1235.16 L 1940.05 1233.94 C 1931.85 1210.22 1912.97 1150.7 1909.04 1125.84 z" fill="rgb(254,255,254)" transform="translate(0,0)"></path>
<path d="M 1768.37 434.654 C 1772.71 439.198 1780.38 531.518 1778.55 540.703 L 1777.55 538.689 C 1770.94 506.048 1765.24 475.283 1761.52 442.223 C 1763.99 438.621 1765.13 437.707 1768.37 434.654 z" fill="rgb(254,255,254)" transform="translate(0,0)"></path>
<path d="M 256.974 560.063 C 257.304 560.36 257.092 560.082 257.466 561.457 C 248.683 569.516 183.29 611.436 176.05 610.147 C 173.496 608.365 173.303 608.215 171.185 605.941 C 175.295 599.345 245.312 564.462 256.974 560.063 z" fill="rgb(254,255,254)" transform="translate(0,0)"></path>
<path d="M 160.85 614.841 C 164.872 615.939 169.288 617.594 173.267 618.978 C 175.313 634.034 176.342 653.398 177.693 668.693 C 178.922 682.606 181.155 705.038 180.566 718.725 C 175.417 708.42 163.811 632.005 160.85 614.841 z" fill="rgb(254,255,254)" transform="translate(0,0)"></path>
<path d="M 100.204 1241.82 C 102.499 1241.7 106.381 1241.63 108.408 1242.35 C 125.065 1248.35 172.091 1302.24 180.356 1316.18 C 171.534 1312.32 109.681 1251.42 100.204 1241.82 z" fill="rgb(254,255,254)" transform="translate(0,0)"></path>
<path d="M 270.253 1506.4 C 271.453 1511 271.912 1514.39 272.603 1519.06 C 277.358 1547.11 280.65 1579.07 283.08 1607.33 C 279.857 1609.86 276.372 1612.73 273.083 1615.11 C 272.327 1599.91 269.72 1563.13 270.868 1549.19 C 269.427 1538.37 270.006 1517.54 270.253 1506.4 z" fill="rgb(254,255,254)" transform="translate(0,0)"></path>
<path d="M 270.253 1506.4 C 271.453 1511 271.912 1514.39 272.603 1519.06 C 269.436 1523.88 272.228 1540.66 270.868 1549.19 C 269.427 1538.37 270.006 1517.54 270.253 1506.4 z" fill="rgb(242,238,243)" transform="translate(0,0)"></path>
<path d="M 1939.34 1240.69 C 1942.54 1241.06 1942.37 1240.98 1945.23 1242.42 L 1945.35 1243.78 C 1932.86 1259.98 1888.03 1297.56 1871.83 1311.35 L 1868.32 1313.55 L 1868.21 1312.7 C 1884.73 1290.97 1917.64 1257.31 1939.34 1240.69 z" fill="rgb(254,255,254)" transform="translate(0,0)"></path>
<path d="M 1912.6 932.663 C 1920.34 937.9 1968.3 1010.16 1971.8 1020.69 C 1968.44 1021.13 1967.76 1021.17 1964.39 1021.06 C 1955.29 1014.29 1918.58 945.737 1912.6 932.663 z" fill="rgb(254,255,254)" transform="translate(0,0)"></path>
<path d="M 1110.09 1916.2 L 1110.55 1916.92 C 1091.9 1932.6 1050.22 1962.97 1029.25 1974.14 C 1028.28 1972.22 1027.53 1966.61 1028.43 1965.88 C 1045.61 1951.75 1091.91 1923.13 1110.09 1916.2 z" fill="rgb(254,255,254)" transform="translate(0,0)"></path>
<path d="M 1966.93 1025.7 C 1969.17 1027.24 1970 1028.28 1971.88 1030.23 C 1970.62 1040.02 1924.63 1095.99 1916.22 1109.05 L 1915.26 1110.56 L 1913.81 1112.1 C 1913.84 1102.55 1956.67 1036.16 1966.93 1025.7 z" fill="rgb(254,255,254)" transform="translate(0,0)"></path>
<path d="M 1018.4 75.855 L 1018.78 75.9162 C 1020.69 77.6741 1020.44 82.571 1020.74 85.8737 C 992.98 104.324 971.443 118.801 941.269 132.747 L 939.54 133.071 C 941.057 129.054 1010.02 81.6644 1018.4 75.855 z" fill="rgb(254,255,254)" transform="translate(0,0)"></path>
<path d="M 1941.02 813.203 C 1944.72 813.334 1948.18 812.878 1950.93 815.106 C 1951.53 821.819 1920.01 887.947 1914.88 899.659 C 1914.07 902.116 1914.14 902.418 1912.62 904.453 C 1913.17 892.651 1935.55 826.951 1941.02 813.203 z" fill="rgb(254,255,254)" transform="translate(0,0)"></path>
<path d="M 935.82 1914.03 C 949.248 1918.2 1006.81 1955.26 1019.94 1965.24 C 1021.33 1967.77 1020.89 1972.3 1020.87 1975.43 C 1003.3 1966.77 951.746 1927.76 935.82 1914.03 z" fill="rgb(254,255,254)" transform="translate(0,0)"></path>
<path d="M 1874.39 619.129 L 1885.57 616.119 C 1884.06 641.968 1871.69 685.909 1867.27 712.94 L 1866 712.734 C 1866.59 682.569 1870.78 649.255 1874.39 619.129 z" fill="rgb(254,255,254)" transform="translate(0,0)"></path>
<path d="M 75.8813 1026.74 C 77.9372 1026.94 78.8975 1027.12 80.9175 1027.5 C 90.4917 1035.9 129.164 1099.36 133.888 1112.54 L 133.024 1113.31 C 124.245 1100.42 76.4293 1039.4 74.1281 1028.56 L 75.8813 1026.74 z" fill="rgb(254,255,254)" transform="translate(0,0)"></path>
<path d="M 99.7679 813.225 C 103.106 813.44 106.21 813.191 108.868 814.987 C 115.237 831.207 120.631 856.633 125.172 873.87 C 127.684 883.408 134.992 908.761 135.919 917.38 C 123.314 891.261 106.811 841.284 99.7679 813.225 z" fill="rgb(254,255,254)" transform="translate(0,0)"></path>
<path d="M 131.952 1141.4 L 133.421 1143.54 C 129.516 1154.83 126.093 1169.15 122.685 1180.96 C 117.438 1198.77 111.997 1216.52 106.366 1234.21 C 103.37 1234.96 98.85 1235.69 95.6955 1236.31 C 104.124 1205.38 119.72 1171.53 131.952 1141.4 z" fill="rgb(254,255,254)" transform="translate(0,0)"></path>
<path d="M 1242.02 102.275 C 1249.81 106.792 1313.28 175.035 1313.9 181.05 C 1291.97 163.615 1259.88 132.367 1240.7 110.191 C 1239.06 108.293 1241.05 104.829 1242.02 102.275 z" fill="rgb(254,255,254)" transform="translate(0,0)"></path>
<path d="M 381.714 399.297 L 383.175 399.407 C 377.957 404.873 303.271 430.815 292.045 433.343 C 289.211 430.996 288.926 430.891 286.64 427.829 C 292.785 421.291 368.126 402.041 381.714 399.297 z" fill="rgb(254,255,254)" transform="translate(0,0)"></path>
<path d="M 1029.01 76.1374 C 1041.38 82.4214 1099.79 124.699 1109.16 134.237 C 1091.09 128.576 1045.33 98.1551 1029.4 85.7328 C 1027.83 84.5135 1028.82 78.726 1029.01 76.1374 z" fill="rgb(254,255,254)" transform="translate(0,0)"></path>
<path d="M 558.978 1788.54 C 565.733 1791.32 602.518 1857.52 608.769 1867.95 C 610.065 1870.11 607.811 1874.48 606.827 1876.8 L 605.745 1877.91 C 600.473 1875.14 562.776 1798.38 558.978 1788.54 z" fill="rgb(254,255,254)" transform="translate(0,0)"></path>
<path d="M 738.495 1872.74 C 747.493 1876.74 798.748 1926.7 807.217 1936.17 C 808.259 1938.92 806.903 1941.74 806.021 1944.77 L 804.552 1945.62 C 800.752 1942.59 788.803 1929.67 785.02 1925.55 C 769.87 1909.06 751.497 1890.81 738.495 1872.74 z" fill="rgb(254,255,254)" transform="translate(0,0)"></path>
<path d="M 167.032 746.63 L 168.136 749.244 C 159.036 758.256 120.313 804.891 111.623 805.533 C 108.526 803.451 108.107 803.946 107.001 801.087 C 114.172 789.796 154.909 756.812 167.032 746.63 z" fill="rgb(254,255,254)" transform="translate(0,0)"></path>
<path d="M 1866 712.734 L 1867.27 712.94 C 1866.96 719.558 1865.74 723.877 1869.52 729 L 1868.87 730.307 C 1863.92 725.151 1864.67 719.174 1866 712.734 z" fill="rgb(79,80,102)" transform="translate(0,0)"></path>
<path d="M 131.952 1141.4 L 135.757 1131.49 L 136.962 1131.25 L 137.099 1131.02 C 136.104 1136.17 135.187 1138.68 133.421 1143.54 L 131.952 1141.4 z" fill="rgb(174,176,181)" transform="translate(0,0)"></path>
<path d="M 180.432 736.56 L 168.136 749.244 L 167.032 746.63 C 171.935 742.561 175.001 739.905 180.432 736.56 z" fill="rgb(174,176,181)" transform="translate(0,0)"></path>
<metadata><recraft-signature>{"signed_by": "recraft", "signature_b64": "BUc5eP7RtO1sHcGeBzTPTcWwgH6wFPGcnTK8hfF2rkMEm/rOneXp9Ctlnp+sBPNoxsAOsPT1+fSNRWpbg5RHBA==", "signing_algo": "Ed25519", "generation_timestamp": 1769541201, "identifier": "0d08b0b2-47e1-432f-ba0e-638491590c4b"}</recraft-signature></metadata></svg>