<svg xmlns="http://www.w3.org/2000/svg" height="1024" preserveAspectRatio="none" style="display: block;" version="1.1" viewBox="0 0 2048 1365" width="1536">
<path d="M 0 0 L 2048 0 L 2048 1365 L 1944.95 1365 L 1743.44 1365 L 1651.58 1365 L 1635.14 1365 L 1628.56 1365 L 1502.13 1365 L 715.007 1365 L 705.927 1365 L 656.016 1365 L 647.079 1365 L 530.787 1365 L 395.261 1365 L 292.728 1365 L 38.9108 1365 L 0 1365 L 0 0 z" fill="rgb(246,246,245)" transform="translate(0,0)"></path>
<path d="M 1846.77 492.006 C 1849.93 497.686 1854.2 502.416 1857.96 507.674 C 1863.4 515.359 1868.56 523.236 1873.44 531.292 C 1897.81 571.584 1912.97 613.19 1925.25 658.382 C 1941.2 717.112 1936.85 768.138 1938.23 827.5 C 1939.1 861.197 1941.65 894.829 1945.87 928.272 C 1955.38 1007.97 1970.32 1082.95 1983.08 1161.73 L 1991.97 1217.16 C 1993.32 1225.59 1996.04 1240.29 1996.55 1248.42 C 1979.29 1259.33 1958.72 1272.86 1940.93 1282.17 C 1880.65 1313.69 1802.72 1344.8 1735.57 1356.98 C 1722.51 1359.24 1709.35 1360.86 1696.14 1361.84 C 1685.98 1362.54 1659.1 1362.1 1651.58 1365 L 1635.14 1365 L 1628.56 1365 L 1502.13 1365 C 1520.77 1322.27 1539.69 1279.67 1558.88 1237.18 C 1586.45 1177 1617.7 1114.6 1629.83 1049.02 C 1635.34 1018.04 1635.21 986.372 1636.25 955.007 C 1638.36 891.256 1637.49 827.828 1638.97 764.021 C 1639.79 728.615 1638.21 708.156 1649.9 672.988 C 1660.38 641.46 1667.81 604.269 1694.15 580.085 C 1734.95 545.199 1799.36 517.046 1846.77 492.006 z" fill="rgb(16,82,81)" transform="translate(0,0)"></path>
<path d="M 1628.56 1365 C 1635.38 1350.89 1643.41 1336.82 1651.46 1323.35 C 1675.28 1283.55 1699.96 1243.23 1725.97 1204.83 L 1754.68 1162.18 C 1761.13 1152.74 1770.56 1140.98 1774.94 1130.76 C 1788.4 1099.36 1792.24 1064.63 1796.44 1031.01 C 1806.99 946.456 1809.4 861.145 1821.89 776.786 C 1823.16 768.216 1825.49 757.153 1826.42 748.311 C 1819.95 700.723 1796.04 654.296 1767.14 616.512 C 1759.37 606.352 1734.47 586.842 1732.4 579.475 L 1733.55 578.478 C 1746.12 580.044 1768.48 606.142 1776.21 616.114 C 1799 645.477 1838.48 718.355 1833.82 755.662 C 1832.51 766.213 1830.31 776.669 1828.84 787.211 C 1825.32 812.093 1822.46 837.064 1820.26 862.097 C 1814.47 924.356 1811.47 986.864 1802.38 1048.79 C 1798.54 1074.95 1792.58 1109.89 1782.38 1134.24 C 1778.19 1144.27 1758.54 1171.53 1751.18 1182.34 C 1734.74 1206.55 1718.57 1230.93 1702.67 1255.49 C 1687.27 1279.49 1672.87 1304.16 1657.98 1328.45 C 1652.27 1337.77 1641.61 1357.31 1635.14 1365 L 1628.56 1365 z" fill="rgb(246,246,245)" transform="translate(0,0)"></path>
<path d="M 251.387 967.749 C 305.732 985.509 350.796 1024.13 376.666 1075.12 C 378.878 1079.47 381.065 1084.34 382.999 1088.83 C 378.324 1097.41 375.361 1103.65 371.473 1112.62 C 359.358 1064.24 330.615 1032.43 288.391 1007.1 C 279.942 1002.03 255.477 989.453 246.778 992.985 C 245.448 995.487 245.65 994.156 246.497 997.145 C 254.743 1001.47 263.077 1002.17 275.218 1008.83 C 312.067 1029.05 350.338 1066.48 362.968 1107.37 C 365.886 1116.82 368.011 1125.71 371.495 1135.05 C 373.548 1128.06 377.655 1112.81 382.251 1107.55 L 383.066 1108.38 C 382.804 1119.97 381.672 1125.62 379.247 1136.74 C 389.988 1170.28 404.068 1201.27 419.664 1232.75 C 420.749 1234.94 421.92 1238.26 421.452 1240.69 C 414.128 1237.68 376.179 1169.18 371.009 1158.9 C 350.604 1118.33 332.145 1046.23 277.038 1042.37 C 265.003 1041.6 252.951 1043.59 241.801 1048.18 C 238.65 1049.49 233.687 1051.84 231.28 1054.25 L 230.89 1056.5 L 232.481 1058.52 C 237.736 1057.64 243.198 1054.56 248.46 1052.96 C 321.941 1030.49 344.455 1125.75 369.897 1173.26 C 379.596 1191.37 392.219 1209.2 401.328 1226.93 C 369.993 1267.37 338.451 1286.29 289.214 1299.15 C 273.661 1274.86 248.047 1227.81 218.704 1218.68 C 212.803 1216.84 202.104 1217.81 197.625 1222.69 L 198.236 1224.64 C 233.758 1229.75 230.602 1229.56 253.907 1259.81 C 269.497 1280.04 282.366 1302.61 297.032 1323.21 C 310.523 1322.1 316.01 1321.71 329.202 1317.81 L 338.002 1326.3 C 320.44 1341.35 309.925 1346.2 292.728 1365 L 38.9108 1365 C 40.0409 1344.88 45.2294 1317.12 49.4481 1297.12 C 72.3749 1188.43 122.908 1095.59 206.868 1022.15 C 209.837 1019.56 211.971 1017.59 215.232 1015.23 C 223.501 1016.67 243.689 1026.17 247.786 1024.52 C 249.759 1021.64 249.455 1023.16 248.915 1019.86 C 243.372 1013.05 229.376 1009.52 220.949 1007.61 C 227.579 997.185 242.254 976.114 251.387 967.749 z" fill="rgb(16,82,81)" transform="translate(0,0)"></path>
<path d="M 455.213 1336.66 C 481.25 1322.5 509.711 1304.59 534.994 1288.8 C 558.708 1274.12 582.305 1259.25 605.785 1244.2 C 625.627 1231.21 644.96 1216.13 665.245 1204.13 C 670.664 1200.93 676.386 1200.83 682.521 1200.68 C 701.391 1210.76 721.406 1231.74 728.579 1252.18 C 731.375 1260.15 728.291 1301.17 721.544 1304.37 C 717.962 1303.47 715.203 1299.88 712.813 1296.98 C 712.186 1292.41 711.606 1287.46 710.851 1282.95 C 704.992 1278.58 694.911 1267.6 697.015 1259.69 C 701.851 1256.63 706.514 1260.26 710.903 1263.07 C 711.471 1268.54 711.729 1279.41 715.717 1282.7 C 718.868 1278.59 718.329 1265.96 718.124 1260.48 C 712.896 1255.33 710.368 1253.66 703.982 1249.85 C 681.033 1254.41 667.987 1258.21 644.362 1260.28 C 625.413 1279.54 604.345 1297.39 584.412 1315.69 C 566.49 1332.13 548.874 1348.72 530.787 1365 L 395.261 1365 C 377.608 1352.49 354.01 1330.14 336.833 1315.64 C 362.185 1304.05 383.875 1290.79 404.363 1271.58 C 412.248 1284.45 444.502 1326.3 455.213 1336.66 z" fill="rgb(16,82,81)" transform="translate(0,0)"></path>
<path d="M 1743.44 1365 C 1769.37 1357.59 1794.97 1351.76 1820.91 1343.39 C 1864.7 1329.27 1902.25 1309.7 1943.31 1290.63 C 1944.88 1316.12 1944.86 1339.44 1944.95 1365 L 1743.44 1365 z" fill="rgb(16,82,81)" transform="translate(0,0)"></path>
<path d="M 705.927 1365 C 691.071 1339.28 677.228 1313.87 660.933 1288.93 C 657.309 1283.39 648.01 1273.4 648.214 1268.04 C 650.786 1266.52 651.567 1267.17 654.984 1267.41 C 665.137 1273.54 705.831 1350.56 715.007 1365 L 705.927 1365 z" fill="rgb(16,82,81)" transform="translate(0,0)"></path>
<path d="M 647.079 1365 C 640.942 1354.37 611.971 1307.63 614.359 1298.36 L 615.825 1297.28 L 618.394 1297.75 C 629.303 1314.37 645.799 1346.6 656.016 1365 L 647.079 1365 z" fill="rgb(16,82,81)" transform="translate(0,0)"></path>
<path d="M 1621.86 132.433 C 1687.39 127.773 1748.96 165.875 1781.96 220.18 C 1791.47 235.818 1794.67 250.701 1807.22 264.882 C 1821.23 280.972 1840.87 288.699 1858.04 300.739 C 1888.95 322.419 1882.96 359.913 1862.33 386.849 C 1861.42 416.088 1845.38 431.898 1823.89 448.998 C 1830.48 457.173 1842.79 471.37 1847.44 481.237 C 1848.47 483.405 1846.88 483.447 1844.64 484.663 C 1824.87 495.397 1802.93 505.478 1783.42 516.202 C 1711.44 555.763 1668.95 570.136 1646.77 655.309 C 1642.81 672.548 1633.52 694.491 1632.12 711.875 C 1629.71 741.533 1630.44 773.78 1630.05 803.532 C 1629.89 854.773 1629.21 906.011 1628.02 957.238 C 1627.05 989.943 1626.73 1023.37 1620.14 1055.49 C 1611.46 1097.81 1594.6 1138.04 1576.97 1177.29 C 1573.09 1185.92 1569.44 1194.57 1564.68 1202.77 C 1565.74 1188.32 1568.99 1170.12 1571.15 1155.52 C 1574.24 1134.53 1577.02 1113.5 1579.49 1092.43 C 1586.3 1036.46 1589.59 984.128 1592.49 927.791 C 1583.24 915.587 1571.52 890.724 1566.45 875.894 C 1550.08 828.059 1572.18 793.745 1592.76 752.689 C 1589.59 741.177 1587.3 721.03 1585.55 708.65 C 1611.32 677.19 1631.67 642.767 1641.92 603.088 C 1645.62 588.778 1645.97 575.76 1648.8 562.156 C 1650.88 552.191 1662.4 532.598 1667.83 522.743 C 1673.61 522.008 1680.41 522.446 1686.37 521.741 C 1728.11 516.806 1756.95 499.015 1763.36 456.012 C 1752.23 476.866 1744.97 490.532 1722.79 502.603 C 1708.24 510.523 1668.07 519.585 1652.72 514.742 L 1652.29 513.442 C 1654.41 512.499 1664.1 508.398 1665.34 507.349 C 1676.57 497.872 1684.59 484.235 1691.31 471.622 C 1703.5 443.924 1711.79 411.993 1701.45 382.426 C 1684.64 334.334 1632.05 335.439 1591.67 322.936 C 1576.29 318.333 1563.2 309.831 1549.71 301.449 C 1520.98 283.588 1500.16 255.842 1472.64 236.892 C 1470.51 235.428 1469.64 235.799 1467.57 236.579 L 1467.37 238.531 C 1469.91 243.148 1495.89 266.752 1501.45 271.84 C 1529.82 297.824 1558.73 321.87 1596.5 332.145 C 1621.44 339.241 1651.46 341.225 1673.18 356.443 C 1713.06 384.383 1699.93 448.769 1675.71 482.949 C 1665.45 497.423 1643.6 511.783 1625.88 514.692 C 1621.87 515.351 1614.82 516.111 1611.53 513.545 C 1613.45 508.614 1628.39 503.245 1633.46 499.601 C 1671.3 472.363 1683.86 425.212 1661.71 383.615 C 1651.65 364.703 1642.67 354.172 1621.92 347.288 C 1654.5 374.679 1676.25 411.525 1659.74 455.749 C 1653.84 471.553 1639.38 487.929 1624.37 495.53 C 1619.8 497.841 1610.81 498.004 1605.75 499.665 C 1591.8 503.715 1574.29 517.059 1559.33 510.437 C 1545.32 504.209 1537.38 490.4 1527.41 479.999 C 1516.17 468.26 1513.21 466.829 1507.28 452.052 C 1492.25 445.109 1480.99 439.461 1466.91 430.813 C 1473.5 422.39 1480.16 413.807 1483.79 403.635 C 1486.28 396.843 1487.04 389.538 1486 382.379 C 1483.24 363.27 1464.23 331.857 1461.81 307.936 C 1459.11 281.243 1462.66 266.02 1468.28 240.354 C 1462.56 249.632 1457.84 264.185 1455.52 274.899 C 1447.06 313.947 1456.67 336.591 1476.38 368.061 C 1430.43 341.553 1441.33 282.452 1458.35 241.738 C 1441.36 256.429 1422.87 276.134 1423.2 300.308 C 1423.27 306.197 1424.22 312.837 1424.89 318.736 L 1422.33 320.181 C 1412.37 317.591 1415.68 288.29 1418.14 280.708 C 1426.5 254.926 1443.92 243.956 1466.72 232.267 C 1435.63 196.898 1473.22 172.293 1508.77 172.136 C 1539.42 148.199 1583.57 135.641 1621.86 132.433 z" fill="rgb(16,82,81)" transform="translate(0,0)"></path>
<path d="M 1805.35 273.718 C 1811.09 277.646 1817.42 285.444 1823.13 289.029 C 1860.26 312.342 1880.51 317.425 1865.42 366.735 C 1864.51 369.654 1865.37 368.644 1863.24 370.196 C 1859.74 364.932 1857.94 351.946 1855.21 345.46 C 1844.01 318.836 1817.26 298.928 1805.35 273.718 z" fill="rgb(246,246,245)" transform="translate(0,0)"></path>
<path d="M 1496.23 320.312 C 1508.1 319.217 1526.82 318.813 1536.56 326.576 L 1536.71 328.148 C 1533.83 329.387 1531.36 328.484 1528.13 327.89 C 1514.26 324.387 1497.66 329.39 1491.75 326.795 L 1491.04 324.952 C 1492.37 322.245 1493.5 321.945 1496.23 320.312 z" fill="rgb(246,246,245)" transform="translate(0,0)"></path>
<path d="M 1557.61 436.55 C 1558.31 436.622 1559.87 437.14 1560.63 437.363 L 1561.74 439.51 C 1560.76 451.195 1548.33 462.198 1537.27 465.17 C 1534.85 464.551 1534.95 464.502 1533.14 462.973 C 1534.07 459.687 1538.57 458.817 1542.04 455.227 C 1547.71 449.364 1552.35 442.84 1557.61 436.55 z" fill="rgb(246,246,245)" transform="translate(0,0)"></path>
<path d="M 1535.2 353.521 C 1537.38 354.245 1536.35 353.68 1538.07 355.76 C 1540.27 366.982 1524.55 378.738 1513.2 375.704 C 1511.05 373.722 1510.93 373.445 1509.42 370.898 C 1514.58 366.095 1520.91 375.532 1535.2 353.521 z" fill="rgb(246,246,245)" transform="translate(0,0)"></path>
<path d="M 348.826 699.423 C 353.567 698.672 360.423 698.913 365.442 698.796 C 384.688 698.346 403.7 700.171 422.161 705.804 C 426.958 707.268 435.57 713.603 439.316 714.35 C 476.949 721.855 517.101 751.902 490.857 792.945 C 489.677 794.79 487.042 798.681 484.906 799.1 C 484.404 789.078 496.692 769.931 487.398 753.621 C 476.475 734.453 459.147 727.825 439.389 721.833 C 428.996 759.408 407.087 790.673 373.518 810.996 C 365.356 815.937 324.556 839.403 324.356 849.714 L 325.743 850.311 C 329.424 849.434 330.927 848.569 333.778 846.135 C 345.768 835.902 361.623 826.476 375.643 818.983 C 409.845 800.704 433.986 768.208 443.887 730.463 C 475.568 763.845 477.861 789.893 479.251 833.752 C 476.091 869.737 506.465 862.941 510.251 880.444 C 512.324 890.034 499.018 896.658 494.673 904.151 C 491.008 910.471 492.314 914.635 494.114 921.335 C 489.021 927.208 489.677 926.091 489.215 934.104 C 489.598 939.514 482.675 943.218 481.233 946.965 C 476.417 959.65 477.612 973.497 460.465 975.836 C 439.15 978.745 417.447 977.028 396.405 973.36 C 384.077 991.988 369.449 1011.84 356.549 1030.33 C 331.976 1002.21 315.534 989.758 282.892 971.998 C 288.221 963.824 292.505 957.111 297.179 948.568 C 243.908 935.409 219.719 903.288 215.173 849.581 C 211.863 810.479 225.356 776.801 250.132 747.033 C 276.308 715.585 308.823 702.839 348.826 699.423 z" fill="rgb(16,82,81)" transform="translate(0,0)"></path>
<path d="M 321.266 858.917 C 329.084 857.485 350.079 862.703 349.471 872.327 C 338.897 874.774 313.233 850.004 303.626 888.469 C 306.692 903.911 313.108 911.995 328.31 917.025 C 337.556 917.737 341.771 914.09 348.804 918.296 L 348.843 919.521 C 342.346 926.223 325.033 924.613 316.725 920.569 C 308.136 916.34 301.539 908.923 298.34 899.9 C 291.543 880.162 302.551 864.965 321.266 858.917 z" fill="rgb(246,246,245)" transform="translate(0,0)"></path>
<path d="M 455.383 801.68 L 456.716 802.173 C 458.736 804.692 458.175 803.543 458.484 806.974 C 455.581 813.407 432.751 829.362 426.296 834.263 C 423.251 833.059 423.946 833.861 422.788 831.469 C 425.756 822.87 446.835 806.294 455.383 801.68 z" fill="rgb(246,246,245)" transform="translate(0,0)"></path>
<path d="M 321.264 930.626 L 322.612 932.202 C 324.785 940.862 321.886 961.375 317.934 968.535 L 315.938 967.019 C 313.785 962.087 317.082 934.402 321.264 930.626 z" fill="rgb(246,246,245)" transform="translate(0,0)"></path>
<path d="M 447.606 914.204 C 457.372 917.415 467.46 919.651 477.21 922.733 C 479.529 923.466 479.441 924.581 480.254 926.72 C 472.602 927.454 446.409 925.09 447.606 914.204 z" fill="rgb(246,246,245)" transform="translate(0,0)"></path>
<path d="M 460.762 840.96 C 463.029 840.878 461.951 840.647 464.043 841.899 L 464.061 844.025 C 462.432 847.43 459.617 849.653 456.842 852.207 C 450.539 853.624 448.04 853.941 441.565 854.311 C 440.876 853.842 439.612 852.688 438.92 852.096 C 441.503 847.679 455.348 843.13 460.762 840.96 z" fill="rgb(246,246,245)" transform="translate(0,0)"></path>
<path d="M 338.657 890.436 C 345.241 891.251 349.049 903.024 347.012 907.924 C 339.471 906.921 338.499 896.399 338.657 890.436 z" fill="rgb(246,246,245)" transform="translate(0,0)"></path>
<path d="M 782.209 263.984 C 782.585 264.141 783.549 265.154 783.903 265.492 C 786.582 279.799 781.558 306.645 775.983 319.809 C 763.272 349.823 738.414 369.042 709.107 381.012 C 681.613 446.346 669.053 516.994 672.343 587.801 C 683.786 540.672 698.218 501.76 726.866 461.911 C 711.571 462.32 703.277 459.734 688.624 455.939 C 706.814 422.999 743.48 403.137 780.071 398.844 L 786.094 394.047 C 863.379 333.073 950.194 304.6 1048.8 316.323 C 1139.04 327.586 1221.21 373.936 1277.52 445.338 C 1327.51 509.173 1358.43 604.21 1348.62 685.172 L 1334.96 685.168 C 1337.33 663.498 1336.17 633.307 1332.89 611.835 C 1318.65 518.52 1274.17 445.893 1199.14 389.807 C 1140.51 348.917 1076.44 327.281 1004.53 327.774 C 918.326 328.189 835.826 362.861 775.205 424.149 C 723.74 476.958 690.997 545.177 681.987 618.363 C 679.176 641.233 679.203 664.017 679.377 686.992 L 666.881 687.08 C 665.225 670.111 665.573 650.933 666.59 633.892 C 667.324 621.583 669.408 609.691 669.077 597.234 C 647.966 595.296 624.673 584.501 608.95 570.407 C 583.733 547.805 573.325 517.773 571.342 485.048 C 623.913 497.288 648.045 528.24 665.795 576.379 C 666.368 563.911 665.653 550.64 666.305 538.012 C 666.933 525.832 668.455 514.195 669.982 502.119 C 650.722 493.223 627.211 468.59 619.805 449.059 C 607.292 416.059 611.932 389.36 624.617 358.652 C 659.653 390.347 677.494 423.363 668.943 472.231 C 668.141 476.812 664.432 496.048 669.292 498.136 C 671.754 494.592 672.928 484.714 673.865 479.992 C 678.7 455.649 685.626 431.866 694.305 408.633 C 699.225 395.461 708.435 382.391 708.19 368.102 C 707.864 349.116 709.846 331.035 718.241 313.705 C 731.478 285.553 754.857 273.981 782.209 263.984 z" fill="rgb(16,82,81)" transform="translate(0,0)"></path>
<path d="M 902.783 460.377 C 925.533 460.875 949.251 460.562 972.072 460.573 L 972.093 476.634 L 953.905 476.576 C 953.309 503.458 953.18 530.349 953.518 557.235 C 989.294 557.134 1025.07 557.233 1060.84 557.534 L 1060.82 476.19 L 1039.1 476.388 L 1039.14 460.569 C 1063.6 460.709 1088.07 460.722 1112.54 460.611 L 1112.44 476.214 L 1092.52 476.256 L 1092.31 666.208 L 1112.93 666.195 C 1113.02 670.427 1113.75 678.7 1111.67 681.682 L 1040.02 681.529 L 1040 666.136 L 1060.93 666.191 L 1060.77 584.33 C 1025.49 583.915 989.268 584.309 953.897 584.205 C 953.428 611.534 953.368 638.868 953.717 666.198 L 973.627 665.953 L 973.939 681.472 C 949.957 681.361 925.975 681.379 901.994 681.525 L 901.99 666.153 L 922.946 666.132 L 922.719 476.166 L 902.697 476.386 L 902.783 460.377 z" fill="rgb(16,82,81)" transform="translate(0,0)"></path>
<path d="M 1088.44 759.106 C 1116.85 755.723 1142.62 776.028 1145.98 804.443 C 1149.34 832.858 1129.01 858.608 1100.59 861.939 C 1072.21 865.266 1046.5 844.97 1043.15 816.591 C 1039.79 788.212 1060.07 762.484 1088.44 759.106 z" fill="rgb(16,82,81)" transform="translate(0,0)"></path>
<path d="M 1091.27 773.421 C 1111.68 771.769 1129.64 786.806 1131.6 807.191 C 1133.56 827.576 1118.8 845.759 1098.44 848.026 C 1085 849.523 1071.8 843.662 1063.89 832.69 C 1055.98 821.718 1054.6 807.337 1060.27 795.06 C 1065.94 782.782 1077.79 774.513 1091.27 773.421 z" fill="rgb(246,246,245)" transform="translate(0,0)"></path>
<path d="M 989.874 349.592 C 1008.96 347.249 1043.26 350.476 1062.15 354.072 C 1141.59 369.197 1214.52 414.77 1259.65 482.515 C 1293.07 533.009 1311.51 591.938 1312.83 652.478 C 1312.97 661.142 1313.28 672.066 1312.03 680.724 C 1311.65 683.323 1310.79 683.253 1308.63 684.545 L 1306.9 683.903 C 1304.66 680.043 1305.26 676.195 1305.42 671.95 C 1311.83 502.846 1188.86 366.949 1020.87 356.778 C 995.763 356.148 975.368 356.98 951.147 361.705 C 807.794 389.67 706.168 521.35 710.008 666.511 C 710.165 672.468 712.328 681.112 709.284 685.619 C 706.297 686.303 707.07 686.583 704.623 685.668 C 703.68 682.547 703.075 679.279 702.932 676.02 C 695.477 505.198 818.897 361.688 989.874 349.592 z" fill="rgb(16,82,81)" transform="translate(0,0)"></path>
<path d="M 1227.95 937.827 L 1248.16 937.815 L 1240.49 944.775 C 1171.13 1005.81 1090.39 1035.64 997.048 1033.69 C 919.251 1032.07 822.028 996.598 768.493 938.134 L 787.697 938.975 C 840.99 985.998 914.758 1014.14 985.235 1019.22 C 1073.74 1025.38 1161.06 996.101 1227.95 937.827 z" fill="rgb(16,82,81)" transform="translate(0,0)"></path>
<path d="M 183.107 790.241 C 184.107 790.182 185.109 790.151 186.111 790.149 C 198.077 790.148 205.212 795.444 213.163 803.529 C 200.614 834.06 207.032 867.984 217.74 897.855 C 208.205 901.885 201.436 902.829 191.233 902.555 C 141.777 892.881 128.319 798.66 183.107 790.241 z" fill="rgb(16,82,81)" transform="translate(0,0)"></path>
<path d="M 830.822 762.039 C 848.154 762.152 880.364 757.632 889.185 774.304 C 899.446 793.7 890.393 806.805 874.505 816.223 C 882.177 827.234 893.264 847.991 900.273 860.349 C 893.199 860.409 885.754 862.542 881.83 856.564 L 859.861 817.799 L 844.046 818.065 L 843.941 860.368 L 830.799 860.357 L 830.822 762.039 z" fill="rgb(16,82,81)" transform="translate(0,0)"></path>
<path d="M 844.015 775.47 C 860.085 775.485 890.211 773.693 875.857 800.026 C 866.08 806.93 855.892 805.265 843.987 805.153 L 844.015 775.47 z" fill="rgb(246,246,245)" transform="translate(0,0)"></path>
<path d="M 1003.09 761.911 L 1015.24 761.871 L 1015.31 860.769 L 1001.88 860.771 L 1001.84 803.5 C 1001.92 797.652 1001.86 793.736 1001.35 787.928 C 991.085 803.569 980.838 818.784 970.715 834.555 C 960.323 818.982 950.329 803.148 940.741 787.067 L 940.204 860.257 L 926.263 860.429 C 926.695 827.605 926.735 794.777 926.382 761.952 L 939.708 761.973 L 971.395 809.458 C 981.874 793.552 992.439 777.703 1003.09 761.911 z" fill="rgb(16,82,81)" transform="translate(0,0)"></path>
<path d="M 1237.88 761.847 L 1251.96 761.914 L 1251.69 859.681 L 1251.16 860.253 C 1248.23 861.363 1247.65 861.122 1244.42 860.874 C 1236.86 855.586 1196.77 801.962 1188.95 791.856 L 1188.88 860.889 L 1174.77 860.926 L 1174.77 761.923 C 1176.3 761.856 1182.96 761.521 1183.78 762.581 C 1201.65 785.687 1221.56 809.626 1238.07 833.62 L 1237.88 761.847 z" fill="rgb(16,82,81)" transform="translate(0,0)"></path>
<path d="M 1366.18 756.576 C 1370.44 760.738 1409.75 851.337 1413.86 860.922 L 1397.92 860.776 C 1394.75 852.794 1391.13 844.766 1387.69 836.878 L 1368.25 837.051 L 1344.98 837.033 C 1341.39 845.453 1337.94 852.609 1333.85 860.803 L 1318.89 860.855 C 1320.64 856.118 1322.86 850.851 1325.05 846.291 C 1339.27 816.707 1351.86 786.077 1366.18 756.576 z" fill="rgb(16,82,81)" transform="translate(0,0)"></path>
<path d="M 1366.46 789.48 C 1369.87 792.41 1379.99 817.414 1382.48 823.155 L 1369.25 823.538 L 1350.84 823.562 C 1355.06 812.943 1360.89 799.316 1366.46 789.48 z" fill="rgb(246,246,245)" transform="translate(0,0)"></path>
<path d="M 758.774 762.012 C 761.73 761.958 762.241 761.805 764.955 762.782 C 767.986 767.314 778.121 792.296 780.932 798.674 C 789.905 819.035 800.087 839.748 808.038 860.419 L 793.485 860.378 C 790.248 852.505 786.68 844.772 782.79 837.2 L 763.5 837.284 L 738.819 837.255 C 735.252 844.505 731.752 852.735 728.431 860.169 L 713.408 860.175 C 728.549 830.247 744.113 793.202 758.774 762.012 z" fill="rgb(16,82,81)" transform="translate(0,0)"></path>
<path d="M 761.2 788.715 C 765.176 795.34 773.572 815.942 777.003 823.898 L 761.193 823.907 L 744.553 823.923 C 750.01 812.144 755.559 800.407 761.2 788.715 z" fill="rgb(246,246,245)" transform="translate(0,0)"></path>
<path d="M 679.144 760.222 L 692.86 760.232 L 693.007 827.214 C 693.02 833.673 693.508 854.677 692.414 859.667 L 689.248 860.233 C 685.799 860.251 682.038 860.628 679.419 858.806 C 678.2 849.16 678.982 825.783 679.063 815.116 L 632.509 815.203 L 632.518 860.29 L 618.811 860.345 C 618.799 848.311 617.294 767.068 619.479 760.456 L 632.523 760.464 C 632.155 774.064 632.254 788.198 632.162 801.842 L 679.074 801.814 L 679.144 760.222 z" fill="rgb(16,82,81)" transform="translate(0,0)"></path>
<path d="M 821.156 937.009 C 823.537 936.968 830.685 936.764 832.537 937.496 C 849.233 944.096 864.042 955.649 880.403 963.166 C 960.838 1000.12 1057.53 1001.14 1137.3 961.782 C 1151.49 954.782 1164.83 946.37 1178.13 937.849 C 1180.97 937.785 1188.48 937.146 1190.19 938.948 L 1187.91 940.807 C 1149.08 968.462 1104.47 986.945 1057.46 994.864 C 974.03 1009.04 889.574 985.695 821.156 937.009 z" fill="rgb(16,82,81)" transform="translate(0,0)"></path>
<path d="M 600 203.634 C 618.201 231.666 613.098 288.149 580.724 304.739 L 578.585 301.644 C 562.386 262.131 569.911 232.398 600 203.634 z" fill="rgb(16,82,81)" transform="translate(0,0)"></path>
<path d="M 452.789 205.652 C 462.283 205.435 471.252 205.598 480.527 207.912 C 500.042 212.892 516.751 225.478 526.925 242.861 C 530.506 249.071 532.95 256.281 536.619 262.233 L 535.935 263.3 C 525.196 267.105 503.662 262.83 493.502 257.757 C 470.865 246.454 460.859 228.581 452.789 205.652 z" fill="rgb(16,82,81)" transform="translate(0,0)"></path>
<path d="M 522.163 298.159 C 532.778 297.794 571.513 300.581 573.897 313.088 C 569.708 323.163 544.435 332.939 534.077 334.748 C 512.607 336.861 497.052 333.462 478.338 322.272 C 492.249 308.893 503.758 302.952 522.163 298.159 z" fill="rgb(16,82,81)" transform="translate(0,0)"></path>
<path d="M 405.479 1234.18 C 409.128 1238.03 414.286 1244.73 417.798 1249 C 382.966 1282.48 354.05 1307.3 305.15 1315.71 C 304.468 1315.64 303.789 1315.54 303.116 1315.4 C 298.15 1314.34 296.132 1310.09 293.372 1305.87 C 340.935 1293.29 374.793 1273.02 405.479 1234.18 z" fill="rgb(16,82,81)" transform="translate(0,0)"></path>
<path d="M 542.074 1203.18 C 563.557 1201.41 579.207 1213.74 592.417 1230.03 C 595.089 1233.32 597.007 1237.06 596.244 1241.38 L 594.897 1242.25 C 588.632 1239.69 575.488 1214.76 554.628 1211.07 C 529.495 1206.64 493.317 1234.72 472.488 1248.75 C 457.398 1259.24 442.283 1270.01 427.148 1280.44 C 424.516 1282.26 422.048 1283.52 418.998 1282.41 C 417.087 1277.54 425.891 1271.94 429.507 1269.66 C 461.12 1249.69 505.877 1210.54 542.074 1203.18 z" fill="rgb(16,82,81)" transform="translate(0,0)"></path>
<path d="M 1284.28 761.836 L 1298.01 761.929 C 1297.84 794.913 1298.06 827.898 1298.68 860.877 L 1284.73 860.963 L 1284.28 761.836 z" fill="rgb(16,82,81)" transform="translate(0,0)"></path>
<path d="M 577.791 1207.22 C 590.88 1207.04 618.119 1210.11 623.788 1223.97 L 622.48 1226.83 C 614.704 1229.06 609.486 1219.1 602.843 1217.4 C 596.317 1215.73 587.167 1214.48 580.243 1213.15 C 577.526 1210.86 578.379 1211.81 577.791 1207.22 z" fill="rgb(16,82,81)" transform="translate(0,0)"></path>
<path d="M 536.619 262.233 C 549.951 269.523 559.818 279.788 569.675 291.127 C 571.898 293.685 576.656 299.871 578.585 301.644 L 580.724 304.739 C 581.34 307.953 594.708 327.152 596.922 337.066 C 593.105 332.495 586.537 320.071 583.032 313.976 C 574.613 299.333 550.355 270.61 535.935 263.3 L 536.619 262.233 z" fill="rgb(16,82,81)" transform="translate(0,0)"></path>
<path d="M 420.694 1253.8 C 422.367 1255.47 422.713 1259.86 422.885 1262.2 C 420.847 1268.31 417.402 1270.12 412.219 1273.58 C 406.897 1264.64 414.393 1260.28 420.694 1253.8 z" fill="rgb(16,82,81)" transform="translate(0,0)"></path>
<metadata><recraft-signature>{"signed_by": "recraft", "signature_b64": "YyDnvSfbftW2owNmPvYtCT9IIpsp9vqsUc/Vdg9xi3vuLJyO1dAr0Cz5tMcCv34x42W6SYwrUEBbGW3DCQ3qCg==", "signing_algo": "Ed25519", "generation_timestamp": 1769541175, "identifier": "dcdd1059-02e1-42ed-b810-19ade90e0879"}</recraft-signature></metadata></svg>